<svg width="330" height="330" viewBox="0 0 330 330" fill="none" xmlns="http://www.w3.org/2000/svg">
<path d="M55.8827 265.775C66.1134 257.441 67.4366 243.435 65.9878 231.062C65.7438 228.995 65.7956 226.795 64.6424 225.059C63.4892 223.323 61.0498 222.271 59.2313 223.301C57.7529 224.154 57.1911 226.001 56.4371 227.553C55.4234 229.638 53.8402 231.397 51.8688 232.629C50.5826 233.423 48.9563 233.975 47.5666 233.364C45.6668 232.526 45.2528 230.076 45.0976 228.016C44.8019 224.177 44.5112 220.334 44.2253 216.489C44.1767 214.419 43.7923 212.369 43.0869 210.421C42.2738 208.523 40.6845 206.823 38.6517 206.441C36.6188 206.058 34.2164 207.382 33.9798 209.435C33.9703 210.295 34.0197 211.156 34.1277 212.009C34.1697 212.436 34.0858 212.866 33.8863 213.246C33.6867 213.627 33.3801 213.941 33.0041 214.15C32.1909 214.459 31.3039 213.944 30.6238 213.415C28.2879 211.517 26.5951 208.957 25.0058 206.404C23.4165 203.852 21.8568 201.255 19.7056 199.122C17.5545 196.988 14.6864 195.443 11.6704 195.517C8.65441 195.591 5.60146 197.687 5.08402 200.666C4.56657 203.646 6.52548 206.441 8.59528 208.633C11.678 211.871 15.2132 214.651 19.0921 216.887C19.8355 217.216 20.4542 217.773 20.8588 218.476C21.428 219.814 20.2157 221.286 18.8777 221.852C17.3549 222.492 15.64 222.47 14.0211 222.794C12.4022 223.117 10.6872 223.971 10.192 225.537C9.5119 227.744 11.4856 229.775 13.3632 231.077C17.1471 233.684 21.3491 235.632 25.7894 236.836C27.3787 237.263 29.0419 237.616 30.3725 238.58C31.7031 239.543 32.5901 241.331 31.9766 242.846C31.363 244.362 29.4559 244.98 27.8148 244.818C26.1738 244.656 24.6584 243.913 23.0691 243.472C20.1122 242.64 16.4161 243.141 14.7455 245.737C14.2515 246.623 13.9734 247.611 13.9336 248.623C13.8938 249.635 14.0934 250.642 14.5164 251.563C15.3768 253.395 16.5986 255.036 18.1089 256.389C23.1405 261.417 29.4194 265.031 36.3084 266.864C43.183 268.593 49.4294 268.703 55.8827 265.775Z" fill="#EBEBEB"/>
<path d="M56.7787 274.963C55.7161 269.257 54.0995 263.667 51.9516 258.272C49.2975 251.682 46.2591 245.251 42.8519 239.014L40.1833 234.1C39.3111 232.481 38.4462 230.878 37.5 229.362C35.6867 226.458 33.7124 223.656 31.5863 220.969C29.5683 218.387 27.5502 216.004 25.6726 213.797C23.795 211.59 21.9765 209.567 20.2246 207.787C17.4985 204.973 14.5548 202.375 11.4206 200.019C10.3118 199.18 9.4247 198.548 8.82594 198.15L8.13847 197.68C8.05996 197.626 7.97852 197.577 7.89453 197.532C7.89453 197.532 7.96845 197.599 8.11629 197.709L8.78898 198.202C9.38035 198.629 10.2674 199.261 11.3467 200.114C14.445 202.502 17.3584 205.118 20.062 207.941C21.7843 209.722 23.588 211.752 25.4804 213.966C27.3728 216.18 29.3687 218.564 31.3941 221.146C33.5195 223.828 35.4938 226.625 37.3078 229.524C38.2466 231.032 39.1041 232.629 39.9764 234.247L42.6228 239.168C46.0016 245.397 49.0273 251.809 51.6855 258.375C53.8359 263.751 55.4695 269.317 56.5643 275" fill="#E0E0E0"/>
<path d="M37.4384 229.326C37.5078 229.031 37.5474 228.731 37.5567 228.429C37.6158 227.855 37.6749 227.009 37.7341 225.972C37.8597 223.897 37.9337 221.028 38.0076 217.88C38.0815 214.731 38.1998 211.848 38.3698 209.788C38.4437 208.751 38.525 207.92 38.5842 207.338C38.6272 207.041 38.647 206.741 38.6433 206.441C38.5519 206.728 38.49 207.024 38.4585 207.324C38.3624 207.898 38.2515 208.736 38.148 209.766C37.9189 211.84 37.7636 214.709 37.6897 217.858C37.6158 221.006 37.564 223.838 37.5197 225.95C37.4827 226.943 37.4606 227.774 37.4384 228.406C37.4086 228.712 37.4086 229.02 37.4384 229.326Z" fill="#E0E0E0"/>
<path d="M10.0654 226.589H10.3463H11.1521C11.8469 226.589 12.8523 226.589 14.1089 226.626C16.6001 226.677 20.0226 226.869 23.8296 227.259C27.6365 227.648 31.0221 228.149 33.4763 228.583C34.7034 228.796 35.6939 228.987 36.3814 229.12L37.165 229.274C37.3498 229.274 37.4459 229.318 37.4459 229.274C37.3627 229.23 37.2728 229.2 37.1798 229.186L36.4036 228.973C35.7309 228.803 34.7404 228.575 33.5133 228.34C31.0665 227.847 27.6513 227.31 23.8591 226.913C20.067 226.516 16.6149 226.368 14.1089 226.376C12.8597 226.376 11.8913 226.376 11.1521 226.442L10.3537 226.494C10.2532 226.51 10.1559 226.542 10.0654 226.589Z" fill="#E0E0E0"/>
<path d="M51.6113 257.801C51.6695 257.69 51.7189 257.574 51.7592 257.455C51.8627 257.198 51.9809 256.867 52.1362 256.462C52.4614 255.594 52.8754 254.322 53.4224 252.784C54.4647 249.643 55.7731 245.259 57.1628 240.397C58.5525 235.534 59.8166 231.15 60.8071 227.994C61.3024 226.449 61.7016 225.184 61.9973 224.257C62.1303 223.845 62.2338 223.522 62.3151 223.242C62.3605 223.126 62.3928 223.005 62.4112 222.882C62.3453 222.987 62.2931 223.101 62.256 223.22C62.1599 223.485 62.0342 223.816 61.879 224.22C61.5537 225.088 61.1398 226.354 60.6002 227.899C59.5505 231.04 58.2421 235.424 56.8597 240.286C55.4774 245.149 54.2281 249.548 53.208 252.689C52.7201 254.233 52.3136 255.499 52.0253 256.418C51.8922 256.838 51.7887 257.154 51.7 257.441C51.6587 257.558 51.629 257.678 51.6113 257.801Z" fill="#E0E0E0"/>
<path d="M14.8408 249.394C14.9553 249.448 15.0774 249.485 15.203 249.504L16.2749 249.754L20.2223 250.651C23.5487 251.387 28.1319 252.513 33.1955 253.748C38.2591 254.984 42.8496 256.058 46.1908 256.764C47.8615 257.117 49.2142 257.39 50.153 257.559L51.2323 257.75C51.3586 257.779 51.4872 257.796 51.6167 257.802C51.4992 257.748 51.3748 257.711 51.2471 257.691L50.1752 257.441L46.2352 256.544C42.9087 255.808 38.3256 254.683 33.2694 253.447C28.2132 252.211 23.6153 251.137 20.274 250.431C18.6034 250.078 17.2507 249.805 16.3119 249.636L15.2252 249.438C15.0985 249.413 14.9699 249.398 14.8408 249.394Z" fill="#E0E0E0"/>
<path d="M152.992 55.577L99.5469 71.5738L110.382 107.423L163.828 91.4259L152.992 55.577Z" fill="white"/>
<path d="M163.837 91.391C163.837 91.391 163.756 91.163 163.622 90.7363C163.489 90.3097 163.29 89.6623 163.031 88.8384C162.521 87.1759 161.767 84.7411 160.813 81.6368C158.906 75.4061 156.179 66.4684 152.852 55.5887L153.044 55.6917L99.614 71.7501L99.7471 71.5074L110.569 107.361L110.347 107.243L148.846 95.8047L159.867 92.5606L162.824 91.7L163.563 91.4793L163.829 91.4131L163.593 91.494L162.854 91.7294L159.956 92.6121L149.001 95.9445L110.443 107.574L110.273 107.626L110.222 107.457C106.917 96.5329 103.236 84.388 99.3701 71.6104L99.3183 71.4265L99.4958 71.375L152.948 55.4122L153.096 55.368L153.14 55.5152C156.415 66.4537 159.098 75.4356 160.976 81.6956C161.893 84.7999 162.617 87.2274 163.105 88.8973C163.349 89.7065 163.526 90.3317 163.659 90.7731C163.792 91.2145 163.837 91.391 163.837 91.391Z" fill="#E0E0E0"/>
<path d="M153.001 55.5667C152.981 55.6228 152.956 55.6769 152.927 55.7285L152.675 56.1846C152.432 56.6039 152.099 57.185 151.685 57.9206L147.952 64.2984L135.43 85.4325L135.341 85.5723L135.193 85.5135L133.559 84.8882L109.483 75.5386L102.202 72.6697L100.236 71.8679L99.7257 71.6545C99.6647 71.6343 99.6073 71.6045 99.5557 71.5663C99.62 71.5718 99.6826 71.5893 99.7405 71.6177L100.258 71.7943L102.261 72.5299L109.579 75.2885L133.693 84.5277L135.334 85.1604L135.097 85.2413C140.05 76.9656 144.5 69.5507 147.723 64.1586L151.559 57.8471C152.003 57.1115 152.358 56.5597 152.609 56.1404L152.897 55.7064C152.956 55.6108 152.993 55.5593 153.001 55.5667Z" fill="#E0E0E0"/>
<path d="M308.515 198.79C308.515 198.79 305.048 195.377 298.292 203.903C294.749 208.219 291.497 212.762 288.556 217.504C288.556 217.504 286.871 219.24 285.762 217.666C284.653 216.092 283.507 212.031 281.038 212.237C278.569 212.443 277.15 214.974 276.817 219.012C276.485 223.051 275.442 231.886 275.339 232.68C275.235 233.475 274.6 234.512 273.646 233.563C272.693 232.614 267.895 224.537 264.162 227.023C260.429 229.51 261.375 240.941 261.457 242.184C261.538 243.427 261.198 243.898 260.577 244.075C259.956 244.251 258.588 241.382 257.117 239.139C255.646 236.895 253.554 234.534 251.529 236.16C249.503 237.785 247.352 245.781 252.468 260.472L255.284 267.092L262.491 268.115C278.067 269.358 285.311 265.29 286.383 262.928C287.455 260.567 284.646 259.14 282.088 258.287C279.53 257.433 276.396 256.816 276.418 256.19C276.44 255.565 276.803 255.109 278.037 254.874C279.272 254.638 290.604 252.667 292.082 248.466C293.561 244.266 284.505 241.632 283.345 240.97C282.184 240.308 283.042 239.404 283.781 239.117C284.52 238.83 292.858 235.6 296.71 234.276C300.561 232.952 302.682 231.025 302.246 228.509C301.81 225.993 297.589 226.001 295.778 225.317C293.967 224.632 295.239 222.587 295.239 222.587C299.133 218.576 302.755 214.313 306.083 209.825C312.684 201.174 308.382 198.651 308.382 198.651" fill="#EBEBEB"/>
<path d="M302.425 206.382C302.392 206.447 302.352 206.509 302.307 206.566L301.93 207.096C301.575 207.567 301.079 208.236 300.451 209.089C299.158 210.818 297.273 213.304 294.922 216.364C290.228 222.485 283.664 230.885 276.375 240.125L257.732 263.819L252.107 271.021L250.569 272.97L250.163 273.47C250.066 273.58 250.022 273.639 250.015 273.632C250.048 273.567 250.087 273.505 250.133 273.448L250.51 272.926L251.988 270.925C253.275 269.196 255.167 266.71 257.51 263.65C262.204 257.529 268.776 249.129 276.072 239.889C283.368 230.65 289.925 222.279 294.707 216.195C297.066 213.172 298.988 210.722 300.333 209.001C300.983 208.17 301.501 207.53 301.863 207.044L302.277 206.544C302.366 206.434 302.417 206.375 302.425 206.382Z" fill="#E0E0E0"/>
<path d="M282.416 217.983C282.577 218.613 282.668 219.259 282.689 219.91C282.8 221.102 282.896 222.757 282.963 224.588C283.029 226.42 283.059 227.935 283.096 229.267C283.15 229.913 283.15 230.563 283.096 231.209C282.936 230.578 282.846 229.932 282.83 229.282C282.734 228.083 282.652 226.427 282.586 224.603C282.519 222.779 282.475 221.256 282.423 219.925C282.364 219.279 282.362 218.629 282.416 217.983Z" fill="#E0E0E0"/>
<path d="M283.715 231.466C286.244 231.06 288.793 230.782 291.351 230.635C295.572 230.289 299.009 230.091 299.017 230.194C296.487 230.596 293.938 230.871 291.38 231.018C287.16 231.371 283.73 231.569 283.715 231.466Z" fill="#E0E0E0"/>
<path d="M271.453 245.649C272.116 245.7 272.774 245.805 273.419 245.965C274.632 246.193 276.295 246.509 278.143 246.804C279.991 247.098 281.669 247.319 282.889 247.473C283.554 247.526 284.214 247.632 284.862 247.789C284.198 247.846 283.528 247.831 282.867 247.745C281.632 247.657 279.91 247.48 278.084 247.179C276.258 246.877 274.558 246.524 273.36 246.23C272.706 246.105 272.066 245.91 271.453 245.649Z" fill="#E0E0E0"/>
<path d="M267.578 233.717C267.885 234.251 268.133 234.815 268.317 235.402C268.709 236.468 269.234 237.94 269.796 239.573C270.358 241.206 270.831 242.692 271.163 243.78C271.372 244.356 271.525 244.949 271.622 245.553C271.31 245.02 271.062 244.452 270.882 243.861C270.483 242.802 269.966 241.331 269.404 239.698C268.842 238.065 268.369 236.571 268.036 235.49C267.819 234.918 267.666 234.323 267.578 233.717Z" fill="#E0E0E0"/>
<path d="M255.152 244.869C255.508 245.569 255.81 246.294 256.054 247.039C256.564 248.4 257.244 250.283 257.976 252.373C258.708 254.462 259.344 256.36 259.795 257.735C260.073 258.471 260.288 259.229 260.438 260.001C260.076 259.292 259.774 258.553 259.536 257.794C259.026 256.441 258.346 254.557 257.614 252.468C256.882 250.379 256.239 248.481 255.795 247.098C255.519 246.375 255.304 245.629 255.152 244.869Z" fill="#E0E0E0"/>
<path d="M260.417 259.603C261.259 259.651 262.097 259.759 262.923 259.927C264.46 260.17 266.619 260.501 268.948 260.81C271.276 261.119 273.442 261.354 274.987 261.545C275.829 261.6 276.666 261.711 277.493 261.876C276.65 261.927 275.804 261.908 274.965 261.818C273.405 261.715 271.269 261.523 268.896 261.207C266.523 260.891 264.401 260.523 262.871 260.221C262.038 260.082 261.217 259.876 260.417 259.603Z" fill="#E0E0E0"/>
<path d="M275.887 126.415L274.136 183.465L316.03 184.739L317.781 127.689L275.887 126.415Z" fill="#F5F5F5"/>
<path d="M268.173 133.999L266.422 191.049L308.316 192.323L310.067 135.273L268.173 133.999Z" fill="white"/>
<path d="M308.31 192.31C308.305 192.217 308.305 192.123 308.31 192.03C308.31 191.839 308.31 191.574 308.31 191.228C308.31 190.493 308.347 189.463 308.384 188.11C308.458 185.38 308.561 181.415 308.694 176.391C308.983 166.35 309.389 152.116 309.87 135.263L310.04 135.44L268.149 134.182L268.348 133.998C267.675 155.331 267.062 175.038 266.559 191.045L266.404 190.883L296.83 191.891L305.294 192.185L307.512 192.273L308.288 192.31H307.549L305.331 192.258L296.904 192.045L266.382 191.199H266.227V191.045C266.707 175.03 267.298 155.301 267.942 133.99V133.799H268.141L310.025 135.094H310.202V135.27C309.648 152.19 309.182 166.446 308.85 176.509C308.68 181.511 308.539 185.469 308.45 188.183C308.399 189.522 308.362 190.552 308.332 191.265C308.332 191.604 308.332 191.868 308.295 192.052C308.258 192.236 308.31 192.31 308.31 192.31Z" fill="#E0E0E0"/>
<path d="M293.732 147.195C293.732 147.305 289.171 147.246 283.553 147.077C277.935 146.908 273.374 146.68 273.374 146.577C273.374 146.474 277.942 146.525 283.56 146.694C289.178 146.864 293.732 147.092 293.732 147.195Z" fill="#E0E0E0"/>
<path d="M304.554 152.491C304.554 152.594 297.532 152.491 288.868 152.204C280.205 151.917 273.182 151.638 273.189 151.535C273.197 151.432 280.212 151.535 288.883 151.822C297.554 152.109 304.562 152.381 304.554 152.491Z" fill="#E0E0E0"/>
<path d="M304.399 157.662C304.399 157.765 297.369 157.662 288.705 157.375C280.042 157.088 273.026 156.809 273.026 156.706C273.026 156.603 280.056 156.706 288.72 156.993C297.383 157.28 304.399 157.552 304.399 157.662Z" fill="#E0E0E0"/>
<path d="M304.238 162.834C304.238 162.937 297.215 162.834 288.552 162.547C279.888 162.26 272.873 161.98 272.873 161.877C272.873 161.774 279.903 161.877 288.567 162.164C297.23 162.451 304.245 162.745 304.238 162.834Z" fill="#E0E0E0"/>
<path d="M304.08 168.005C304.08 168.108 297.05 168.005 288.394 167.718C279.738 167.431 272.708 167.152 272.708 167.049C272.708 166.946 279.738 167.049 288.402 167.336C297.065 167.622 304.08 167.895 304.08 168.005Z" fill="#E0E0E0"/>
<path d="M303.925 173.176C303.925 173.279 296.895 173.176 288.231 172.889C279.568 172.603 272.553 172.323 272.553 172.22C272.553 172.117 279.583 172.22 288.246 172.507C296.91 172.794 303.925 173.044 303.925 173.176Z" fill="#E0E0E0"/>
<path d="M303.764 178.348C303.764 178.451 296.734 178.348 288.078 178.061C279.422 177.774 272.392 177.495 272.399 177.392C272.407 177.289 279.422 177.392 288.085 177.679C296.749 177.965 303.772 178.238 303.764 178.348Z" fill="#E0E0E0"/>
<path d="M289.096 183.078C289.096 183.181 285.318 183.151 280.661 183.012C276.004 182.872 272.234 182.666 272.234 182.563C272.234 182.46 276.012 182.489 280.669 182.629C285.326 182.769 289.096 182.967 289.096 183.078Z" fill="#E0E0E0"/>
<path d="M184.221 81.8034L171.112 114.567L212.292 130.883L225.4 98.1191L184.221 81.8034Z" fill="white"/>
<path d="M225.392 98.1218L225.192 98.0483L224.616 97.8276L222.398 96.9449L213.949 93.5978L184.188 81.828L184.277 81.7912L171.178 114.548L171.133 114.445L212.308 130.776H212.226C216.188 120.904 219.478 112.724 221.77 107.008C222.923 104.154 223.825 101.91 224.438 100.388L225.177 98.6441L225.421 98.0409L225.192 98.6368C225.037 99.034 224.808 99.6151 224.505 100.373C223.898 101.903 223.026 104.147 221.873 106.993C219.589 112.716 216.314 120.918 212.374 130.812V130.871H212.315L171.082 114.636H171.008V114.563C175.746 102.734 180.218 91.5528 184.121 81.8059V81.7397H184.181L214.015 93.5978L222.42 96.9522L224.638 97.8349L225.207 98.063L225.392 98.1218Z" fill="#E0E0E0"/>
<path d="M184.784 84.4651L173.327 113.101L211.615 128.271L223.072 99.6352L184.784 84.4651Z" fill="#EBEBEB"/>
<path d="M173.478 113.187L193.976 100.682L197.805 115.1L205.803 111.378L211.769 128.356L173.478 113.187Z" fill="#E0E0E0"/>
<path d="M206.646 103.161C206.409 103.754 206 104.265 205.471 104.627C204.942 104.989 204.317 105.187 203.675 105.196C203.033 105.204 202.403 105.023 201.864 104.676C201.326 104.328 200.903 103.829 200.649 103.242C200.396 102.655 200.323 102.006 200.44 101.378C200.557 100.75 200.859 100.17 201.307 99.7129C201.755 99.2553 202.329 98.9403 202.957 98.8077C203.585 98.6751 204.239 98.7308 204.835 98.9679C205.231 99.1243 205.592 99.3569 205.898 99.6525C206.203 99.9481 206.447 100.301 206.615 100.69C206.783 101.08 206.873 101.499 206.878 101.922C206.883 102.346 206.804 102.767 206.646 103.161Z" fill="#E0E0E0"/>
<path d="M78.212 148.666C78.4903 148.78 78.7915 148.828 79.0917 148.806C79.4514 148.765 79.7858 148.601 80.0379 148.342C80.3304 147.939 80.5899 147.514 80.8141 147.07L85.6116 138.742L87.2083 135.991L88.0584 134.52C88.2063 134.286 88.3349 134.04 88.4427 133.784C88.5205 133.53 88.5205 133.259 88.4427 133.005C88.3762 132.743 88.2289 132.509 88.0214 132.335C87.7845 132.168 87.5377 132.016 87.2822 131.879L85.6337 130.967L82.2038 129.054L66.9317 120.529C66.6304 120.368 66.2801 120.325 65.9484 120.406C65.6167 120.488 65.327 120.689 65.1354 120.97L63.9896 122.927C63.2504 124.221 62.5112 125.509 61.7719 126.767L57.4845 134.057C57.3145 134.343 57.1445 134.63 56.9818 134.917C56.8171 135.166 56.7321 135.458 56.7379 135.756C56.7496 136.046 56.8559 136.325 57.041 136.55C57.2509 136.767 57.5023 136.939 57.7802 137.058L61.0106 138.882L66.7912 142.148L75.1591 146.908L77.4285 148.217L78.0124 148.563C78.1455 148.644 78.212 148.688 78.2046 148.695L77.9977 148.6L77.3915 148.283L75.0926 147.033L66.6581 142.384L60.8775 139.125L57.6397 137.323C57.326 137.185 57.0423 136.987 56.8044 136.742C56.5735 136.457 56.4412 136.106 56.4274 135.741C56.4116 135.377 56.5097 135.017 56.7083 134.711C56.871 134.424 57.041 134.137 57.211 133.851L61.4467 126.575L63.6643 122.735L64.8249 120.757C65.0696 120.396 65.4402 120.138 65.8649 120.033C66.2896 119.929 66.7382 119.985 67.1238 120.19L82.3812 128.745L85.8111 130.673L87.4448 131.6C87.7269 131.742 87.9986 131.905 88.2579 132.085C88.5157 132.304 88.699 132.597 88.7828 132.924C88.8716 133.236 88.8716 133.567 88.7828 133.88C88.665 134.158 88.524 134.427 88.3614 134.682L87.4965 136.153L85.8851 138.897C83.8227 142.369 82.152 145.186 80.9841 147.165C80.7416 147.61 80.4648 148.035 80.1562 148.438C79.881 148.706 79.5201 148.87 79.1361 148.901C78.9038 148.918 78.6708 148.88 78.456 148.791C78.3693 148.761 78.2872 148.718 78.212 148.666Z" fill="#E0E0E0"/>
<path d="M74.3123 133.586L76.1751 136.874L72.3312 136.948L68.4873 137.014L70.4684 133.652L72.4495 130.29L74.3123 133.586Z" fill="#E0E0E0"/>
<path d="M324.999 273.823C324.999 273.933 254.294 274.021 167.104 274.021C79.9134 274.021 9.18555 273.948 9.18555 273.823C9.18555 273.698 79.8765 273.617 167.104 273.617C254.331 273.617 324.999 273.727 324.999 273.823Z" fill="#263238"/>
<path d="M87.35 227.104L65.0332 204.793L76.2545 184.284C87.4757 169.984 111.234 170.903 111.234 170.903C122.955 170.111 134.73 170.83 146.265 173.044C165.137 176.722 163.615 189.125 163.615 189.125L166.143 235.152L168.856 272.631L99.2588 274.029L87.35 227.134" fill="#F34D4D"/>
<path d="M124.844 271.837L62.5062 272.572C59.0721 272.612 55.6843 271.783 52.6608 270.162C49.6373 268.541 47.0775 266.182 45.2217 263.306C43.3659 260.43 42.2751 257.132 42.0517 253.722C41.8283 250.312 42.4796 246.901 43.9446 243.81L70.6006 194.619L94.8837 210.95L78.318 245.134L128.777 246.031L124.844 271.837Z" fill="#F34D4D"/>
<path d="M161.414 181.621L211.437 258.478L182.252 260.376C182.252 260.376 164.822 233.048 165.214 233.607C165.908 234.637 161.414 181.621 161.414 181.621Z" fill="#F34D4D"/>
<path d="M93.626 215.371C93.6278 215.236 93.6503 215.102 93.6925 214.974C93.7665 214.68 93.8478 214.312 93.9587 213.856C94.1878 212.892 94.5279 211.494 94.8753 209.758C95.2227 208.022 95.6145 205.933 95.8584 203.609C96.1587 201.089 96.1587 198.544 95.8584 196.024C95.4574 193.526 94.5818 191.127 93.2786 188.955C92.2312 187.167 90.992 185.497 89.5825 183.975C88.6325 182.935 87.6204 181.952 86.5517 181.033C86.1444 180.715 85.7545 180.377 85.3838 180.018C85.5041 180.077 85.618 180.148 85.7238 180.231C85.9308 180.385 86.2635 180.599 86.6478 180.915C87.7594 181.788 88.8069 182.74 89.7821 183.762C91.2391 185.273 92.5188 186.943 93.5964 188.742C94.9455 190.947 95.8494 193.394 96.2576 195.944C96.5503 198.494 96.5305 201.07 96.1985 203.616C95.9488 205.687 95.5935 207.745 95.134 209.78C94.7496 211.524 94.3948 212.914 94.0917 213.87C93.9587 214.349 93.8404 214.716 93.7591 214.966C93.7279 215.105 93.6834 215.241 93.626 215.371Z" fill="#263238"/>
<path d="M91.6147 218.019C91.508 218.402 91.3644 218.774 91.1859 219.13C90.8903 219.866 90.4467 220.851 89.8775 222.072C88.7465 224.566 87.1424 227.994 85.2944 231.746C83.4464 235.497 81.7018 238.859 80.4082 241.309C79.7577 242.515 79.2255 243.516 78.8485 244.156C78.6685 244.512 78.4609 244.854 78.2275 245.178C78.3603 244.803 78.5235 244.439 78.7154 244.089C79.0924 243.354 79.5803 242.368 80.1938 241.184L84.9766 231.621C86.7876 227.891 88.4361 224.522 89.6632 221.999C90.2397 220.815 90.7128 219.829 91.0825 219.056C91.2304 218.697 91.4084 218.35 91.6147 218.019Z" fill="#263238"/>
<path d="M124.843 271.837C124.843 271.837 124.843 271.792 124.843 271.712C124.843 271.631 124.843 271.483 124.843 271.329C124.88 270.976 124.932 270.483 124.991 269.858C125.139 268.548 125.346 266.687 125.605 264.341C126.152 259.581 126.935 252.887 127.822 244.994L128 245.185H109.586L77.4229 245.134L67.6653 245.075L65.0115 245.038H64.3166H64.0801C64.1586 245.029 64.2381 245.029 64.3166 245.038H65.0115L67.6653 245.001L77.4229 244.943L109.638 244.891H128.052H128.251V245.082C127.275 252.968 126.455 259.662 125.863 264.414C125.568 266.754 125.324 268.615 125.124 269.924C125.045 270.542 124.979 271.032 124.925 271.395L124.866 271.77C124.858 271.792 124.851 271.837 124.843 271.837Z" fill="#263238"/>
<path d="M78.7543 245.678C78.3078 245.188 77.893 244.669 77.5124 244.126C75.5202 241.637 73.0532 239.565 70.2533 238.028C69.6554 237.74 69.073 237.421 68.5088 237.072C69.165 237.225 69.7951 237.472 70.379 237.807C73.2951 239.241 75.8169 241.359 77.7268 243.979C78.1465 244.496 78.4922 245.067 78.7543 245.678Z" fill="#263238"/>
<path d="M167.179 250.548C167.125 250.338 167.091 250.124 167.076 249.908C167.024 249.459 166.958 248.849 166.869 248.076C166.699 246.487 166.47 244.185 166.226 241.338C165.716 235.637 165.132 227.751 164.614 219.042C164.097 210.332 163.735 202.432 163.528 196.716C163.424 193.854 163.35 191.567 163.321 189.941C163.321 189.168 163.321 188.558 163.284 188.102C163.273 187.889 163.273 187.675 163.284 187.462C163.325 187.673 163.347 187.887 163.35 188.102C163.35 188.55 163.409 189.168 163.454 189.941C163.535 191.574 163.646 193.876 163.786 196.701C164.06 202.417 164.467 210.303 164.984 219.02C165.501 227.737 166.048 235.608 166.462 241.316C166.684 244.133 166.862 246.465 166.987 248.069C167.046 248.805 167.091 249.452 167.128 249.901C167.165 250.114 167.182 250.331 167.179 250.548Z" fill="#263238"/>
<path d="M111.531 208.728C111.534 208.391 111.561 208.054 111.612 207.721C111.701 207.022 111.812 206.088 111.952 204.94C112.278 202.513 112.692 199.188 113.239 195.333L113.52 195.509L108.737 198.842L103.873 202.211L103.525 202.454L103.585 202.034C104.176 198.217 104.679 194.921 105.063 192.471C105.255 191.346 105.403 190.419 105.521 189.728C105.561 189.396 105.63 189.069 105.728 188.749C105.729 189.085 105.699 189.419 105.64 189.75C105.551 190.441 105.44 191.368 105.292 192.508C104.959 194.921 104.494 198.224 103.962 202.071L103.681 201.895L108.537 198.511L113.327 195.193L113.675 194.95L113.616 195.37C113.046 199.21 112.551 202.535 112.196 204.933C112.012 206.073 111.864 207.007 111.753 207.699C111.71 208.048 111.636 208.392 111.531 208.728Z" fill="#E0E0E0"/>
<path d="M139.356 211.708C139.09 211.497 138.842 211.263 138.617 211.009C138.136 210.494 137.486 209.81 136.687 208.971L130.086 201.851L130.404 201.74C130.249 203.543 130.086 205.499 129.916 207.53C129.746 209.56 129.569 211.575 129.414 213.414L129.377 213.841L129.096 213.525L122.672 206.316L120.839 204.212C120.605 203.971 120.397 203.707 120.218 203.425C120.484 203.65 120.731 203.896 120.957 204.16L122.864 206.191L129.384 213.304L129.066 213.414C129.221 211.583 129.384 209.597 129.561 207.53C129.739 205.462 129.901 203.543 130.057 201.74L130.094 201.321L130.375 201.63L136.88 208.846L138.735 210.958C138.961 211.191 139.169 211.442 139.356 211.708Z" fill="#E0E0E0"/>
<path d="M153.356 210.722C153.218 211.032 153.05 211.328 152.853 211.604L151.375 213.973L146.097 222.124L145.92 221.844L151.656 220.858L157.496 219.88L157.917 219.807L157.718 220.123L152.321 228.112L150.695 230.421C150.514 230.704 150.312 230.972 150.089 231.223C150.235 230.922 150.403 230.632 150.592 230.355L152.07 228.001L157.355 219.91L157.54 220.189L151.7 221.197L145.942 222.168L145.521 222.234L145.757 221.888L151.146 213.797L152.728 211.479C152.922 211.215 153.132 210.962 153.356 210.722Z" fill="#E0E0E0"/>
<path d="M134.734 224.978C134.595 225.285 134.427 225.578 134.231 225.853L132.753 228.229L127.482 236.373L127.297 236.093L133.049 235.107L138.896 234.122L139.317 234.055L139.073 234.401L133.677 242.397L132.088 244.692C131.911 244.976 131.708 245.242 131.481 245.487C131.629 245.187 131.797 244.897 131.984 244.619C132.368 244.03 132.871 243.243 133.463 242.272L138.748 234.181L138.933 234.46L133.093 235.468L127.334 236.432L126.913 236.505L127.15 236.152L132.538 228.06C133.189 227.104 133.721 226.324 134.128 225.743C134.311 225.474 134.514 225.218 134.734 224.978Z" fill="#E0E0E0"/>
<path d="M174.97 210.56C174.824 210.863 174.656 211.156 174.467 211.435L172.989 213.811L167.718 221.955L167.534 221.675L173.285 220.689L179.132 219.704L179.553 219.637L179.317 219.983L173.913 227.979C173.263 228.921 172.73 229.693 172.324 230.267C172.149 230.554 171.946 230.822 171.718 231.069C171.867 230.768 172.037 230.478 172.228 230.201L173.706 227.854L178.991 219.762L179.176 220.042L173.336 221.042L167.578 222.013L167.164 222.087L167.393 221.734L172.782 213.642L174.371 211.325C174.545 211.051 174.746 210.795 174.97 210.56Z" fill="#E0E0E0"/>
<path d="M198.181 247.591C197.917 247.391 197.669 247.169 197.442 246.929L195.416 244.987L188.46 238.204L188.771 238.079C188.712 239.889 188.653 241.846 188.586 243.883C188.519 245.921 188.438 247.944 188.372 249.768V250.195L188.069 249.893L181.297 243.015L179.361 241.007C179.12 240.779 178.898 240.533 178.695 240.271C178.959 240.473 179.206 240.694 179.435 240.934L181.445 242.868L188.32 249.651L188.002 249.776C188.061 247.937 188.128 245.95 188.194 243.891C188.261 241.831 188.342 239.896 188.409 238.087V237.667L188.704 237.962L195.557 244.847L197.516 246.863C197.757 247.086 197.98 247.33 198.181 247.591Z" fill="#E0E0E0"/>
<path d="M80.7563 198.746C80.6116 199.05 80.4436 199.343 80.2536 199.621L78.7752 201.997L73.5046 210.148L73.3198 209.869L79.0709 208.875L84.9181 207.897L85.3394 207.824L85.1029 208.177L79.6992 216.165L78.1173 218.461C77.9377 218.742 77.735 219.007 77.5111 219.255C77.6528 218.954 77.821 218.666 78.0138 218.394L79.4922 216.04C80.8302 214.003 82.6635 211.207 84.7776 207.949L84.9624 208.228L79.1226 209.236L73.3642 210.207L72.9502 210.273L73.1793 209.927C75.3452 206.691 77.2081 203.895 78.5682 201.836L80.1575 199.518C80.3364 199.246 80.5366 198.987 80.7563 198.746Z" fill="#E0E0E0"/>
<path d="M51.5303 253.755C51.7793 253.979 52.007 254.225 52.2103 254.491L54.014 256.646L60.1421 264.172L59.8168 264.26C60.083 262.472 60.3639 260.53 60.6669 258.507C60.97 256.484 61.2657 254.491 61.5392 252.674L61.5984 252.255L61.8645 252.593L67.8225 260.184L69.5153 262.391C69.7304 262.647 69.9233 262.92 70.0919 263.208C69.8492 262.98 69.6243 262.734 69.4192 262.472L67.6451 260.324L61.6205 252.814L61.9458 252.733C61.6797 254.55 61.3914 256.521 61.0883 258.566C60.7852 260.611 60.4969 262.524 60.2234 264.311L60.1643 264.731L59.8982 264.4L53.8662 256.793L52.1438 254.586C51.9208 254.323 51.7158 254.046 51.5303 253.755Z" fill="#E0E0E0"/>
<path d="M118.28 218.137C117.949 218.207 117.612 218.252 117.274 218.269L114.465 218.512L104.752 219.248L104.87 218.939L109.128 222.911L113.438 226.957L113.748 227.251H113.319L103.658 227.781L100.864 227.898C100.529 227.927 100.193 227.927 99.8584 227.898C100.188 227.833 100.521 227.791 100.856 227.773L103.643 227.553L113.297 226.891L113.186 227.2L108.862 223.168L104.619 219.181L104.308 218.887H104.73L114.45 218.306L117.259 218.166C117.598 218.131 117.939 218.121 118.28 218.137Z" fill="#E0E0E0"/>
<path d="M101.897 255.212C102.144 255.443 102.376 255.688 102.592 255.947L104.433 258.066L110.724 265.466L110.398 265.555C110.628 263.76 110.879 261.818 111.138 259.795C111.396 257.772 111.662 255.764 111.877 253.947L111.936 253.52L112.202 253.851L118.323 261.317L120.06 263.524C120.275 263.78 120.473 264.051 120.651 264.333C120.402 264.108 120.172 263.862 119.964 263.598L118.145 261.487L111.936 254.13L112.254 254.035C112.025 255.859 111.773 257.831 111.515 259.883C111.256 261.935 110.997 263.855 110.775 265.65L110.716 266.069L110.45 265.746L104.263 258.257L102.504 256.05C102.274 255.791 102.071 255.511 101.897 255.212Z" fill="#E0E0E0"/>
<path d="M72.6192 228.024C72.2884 228.096 71.9521 228.14 71.6138 228.156L68.8122 228.391L59.0989 229.127L59.2098 228.811L63.4751 232.79L67.7847 236.836L68.0952 237.13H67.6664L58.0049 237.66L55.2107 237.778C54.8836 237.805 54.5547 237.805 54.2275 237.778C54.5559 237.707 54.8898 237.666 55.2255 237.653L58.0123 237.432L67.6664 236.763L67.5555 237.079L63.2312 233.048L58.9807 229.061L58.6776 228.767H59.0989L68.8196 228.178L71.6286 228.046C71.9578 228.014 72.2889 228.006 72.6192 228.024Z" fill="#E0E0E0"/>
<path d="M97.7747 254.381C97.4437 254.45 97.1074 254.492 96.7694 254.506L93.9604 254.748L84.2471 255.484L84.3654 255.168L88.6232 259.147L92.9329 263.193L93.2433 263.487H92.822L83.1531 264.01L80.3588 264.135C80.0244 264.164 79.688 264.164 79.3535 264.135C79.6819 264.064 80.0158 264.023 80.3514 264.01L83.1383 263.789L92.7924 263.12L92.6815 263.436L88.3571 259.405L84.114 255.433L83.8036 255.146H84.2249L93.9456 254.557L96.762 254.425C97.0975 254.38 97.4365 254.365 97.7747 254.381Z" fill="#E0E0E0"/>
<path d="M154.552 187.322C154.221 187.393 153.885 187.437 153.547 187.454L150.738 187.69L141.032 188.425L141.143 188.116L145.401 192.089L149.71 196.135L150.021 196.429H149.599L139.93 196.959L137.136 197.076C136.802 197.105 136.465 197.105 136.131 197.076C136.459 197.006 136.793 196.964 137.129 196.951L139.916 196.731L149.577 196.068L149.459 196.377L145.149 192.354L140.906 188.367L140.596 188.072H141.017L150.738 187.484L153.554 187.351C153.886 187.317 154.219 187.307 154.552 187.322Z" fill="#E0E0E0"/>
<path d="M126.936 254.381C126.936 254.381 139.369 250.813 143.487 249.768C145.091 249.364 151.958 252.968 156.704 255.969C156.704 255.969 163.238 259.824 162.713 261.008C162.129 262.318 159.757 262.053 155.876 260.273C155.876 260.273 157.221 264.149 154.582 264.061C154.582 264.061 155.891 268.254 153.422 268.688C150.953 269.122 150.376 263.774 148.203 263.487C146.029 263.201 141.55 262.906 141.55 262.906C141.55 262.906 137.802 269.085 134.897 269.527C131.992 269.968 125.287 269.181 125.287 269.181L126.936 254.381Z" fill="#FFBE9D"/>
<path d="M148.159 255.234C149.376 255.773 150.54 256.426 151.633 257.183C152.794 257.837 153.888 258.6 154.901 259.464C152.52 258.277 150.262 256.86 148.159 255.234Z" fill="#EB996E"/>
<path d="M147.427 257.639C148.847 258.084 150.227 258.648 151.552 259.324C152.921 259.878 154.241 260.545 155.499 261.317C154.078 260.877 152.698 260.316 151.374 259.64C150.002 259.089 148.681 258.42 147.427 257.639Z" fill="#EB996E"/>
<path d="M148.759 263.384C150.637 263.377 152.507 263.625 154.318 264.12C152.44 264.125 150.57 263.878 148.759 263.384Z" fill="#EB996E"/>
<path d="M110.753 126.7C110.9 127.177 110.902 127.686 110.759 128.164C110.617 128.642 110.336 129.067 109.952 129.387C109.568 129.707 109.098 129.908 108.6 129.964C108.103 130.02 107.599 129.928 107.153 129.702C105.468 128.856 105.254 126.538 105.586 124.692C105.919 122.846 106.547 120.867 105.771 119.153C105.172 117.843 103.879 117.012 102.873 115.982C101.986 115.087 101.32 114 100.926 112.805C100.532 111.61 100.422 110.341 100.604 109.097C100.817 107.857 101.37 106.699 102.202 105.751C103.034 104.804 104.113 104.103 105.32 103.727C107.796 103.043 110.849 103.801 112.712 102.013C114.05 100.718 114.132 98.6072 115.166 97.0624C116.771 94.6643 120.164 94.2818 123.032 94.6716C125.9 95.0615 128.812 95.981 131.621 95.2822C133.965 94.7011 135.887 93.0753 138.089 92.0749C140.49 90.9828 143.174 90.6647 145.766 91.165C148.357 91.6653 150.727 92.9591 152.543 94.8654C154.359 96.7717 155.531 99.1952 155.895 101.797C156.26 104.399 155.798 107.049 154.574 109.377C153.758 111.08 152.37 112.446 150.649 113.238" fill="#263238"/>
<path d="M125.02 187.469C126.905 187.466 128.771 187.09 130.509 186.363C132.247 185.637 133.823 184.574 135.145 183.237C136.467 181.9 137.509 180.315 138.212 178.574C138.914 176.833 139.262 174.971 139.235 173.095L139.05 159.575C139.05 159.575 150.464 158.435 151.218 147.18C151.972 135.925 151.432 109.95 151.432 109.95C145.152 106.85 138.155 105.473 131.162 105.96C124.168 106.448 117.432 108.782 111.648 112.724L109.903 113.923L110.753 173.463C110.798 177.197 112.322 180.763 114.993 183.385C117.664 186.008 121.268 187.475 125.02 187.469Z" fill="#FFBE9D"/>
<path d="M148.447 130.378C148.034 130.331 147.653 130.135 147.377 129.826C147.1 129.517 146.947 129.118 146.947 128.705C146.947 128.292 147.1 127.893 147.377 127.584C147.653 127.275 148.034 127.079 148.447 127.031C148.536 127.009 148.63 127.009 148.72 127.031C149.133 127.079 149.514 127.275 149.79 127.584C150.067 127.893 150.22 128.292 150.22 128.705C150.22 129.118 150.067 129.517 149.79 129.826C149.514 130.135 149.133 130.331 148.72 130.378C148.63 130.393 148.537 130.393 148.447 130.378Z" fill="#263238"/>
<path d="M150.664 126.744C150.479 126.936 149.415 126.009 147.855 125.928C146.296 125.847 145.12 126.575 144.965 126.369C144.81 126.163 145.076 125.935 145.593 125.589C146.285 125.148 147.1 124.939 147.92 124.993C148.74 125.047 149.52 125.362 150.147 125.891C150.613 126.303 150.76 126.7 150.664 126.744Z" fill="#263238"/>
<path d="M132.634 127.127C132.902 127.312 133.109 127.572 133.229 127.873C133.348 128.175 133.375 128.506 133.306 128.823C133.237 129.14 133.075 129.43 132.841 129.656C132.606 129.881 132.309 130.032 131.988 130.09C131.667 130.148 131.336 130.109 131.037 129.98C130.738 129.85 130.485 129.635 130.308 129.362C130.132 129.089 130.041 128.77 130.047 128.445C130.053 128.121 130.156 127.805 130.342 127.539C130.591 127.182 130.973 126.939 131.402 126.861C131.832 126.784 132.275 126.88 132.634 127.127Z" fill="#263238"/>
<path d="M133.662 127.193C133.47 127.384 132.405 126.458 130.853 126.377C129.3 126.296 128.118 127.024 127.955 126.818C127.874 126.722 128.073 126.384 128.583 126.038C129.275 125.597 130.09 125.388 130.91 125.442C131.73 125.496 132.51 125.811 133.137 126.34C133.603 126.752 133.75 127.112 133.662 127.193Z" fill="#263238"/>
<path d="M139.236 140.331C139.236 140.213 140.204 140.066 141.786 139.934C142.193 139.934 142.525 139.838 142.562 139.625C142.592 139.219 142.513 138.813 142.333 138.448C141.986 137.396 141.638 136.337 141.269 135.226C139.79 130.643 138.822 126.869 139.051 126.796C139.28 126.722 140.655 130.378 142.111 134.961C142.451 136.079 142.784 137.168 143.102 138.198C143.337 138.733 143.383 139.332 143.235 139.897C143.169 140.05 143.068 140.185 142.939 140.291C142.811 140.397 142.659 140.471 142.496 140.508C142.266 140.559 142.029 140.576 141.794 140.559C140.197 140.53 139.236 140.456 139.236 140.331Z" fill="#263238"/>
<path d="M134.063 141.773C136.439 142.987 138.971 143.87 141.588 144.399C141.014 145.184 140.191 145.752 139.251 146.011C138.312 146.27 137.311 146.205 136.414 145.826C133.08 144.407 134.063 141.773 134.063 141.773Z" fill="white"/>
<path d="M139.095 159.413C133.863 159.227 128.804 157.496 124.562 154.44C124.562 154.44 127.608 162.73 138.955 162.333L139.095 159.413Z" fill="#EB996E"/>
<path d="M151.529 112.797C151.529 112.797 144.691 116.254 135.636 111.973C129.722 109.163 122.795 107.861 121.302 109.075C119.809 110.289 119.609 116.321 113.814 118.196C113.814 118.196 114.442 129.716 109.815 129.392C105.187 129.069 107.73 111.171 107.73 111.171L118.915 105.463L131.193 102.91L142.836 104.315L151.869 106.588L151.529 112.797Z" fill="#263238"/>
<path d="M110.659 125.692C110.474 125.597 103.008 122.978 102.838 130.695C102.668 138.411 110.481 136.992 110.496 136.771C110.511 136.55 110.659 125.692 110.659 125.692Z" fill="#FFBE9D"/>
<path d="M108.188 133.792C108.188 133.792 108.048 133.887 107.819 133.983C107.494 134.114 107.131 134.114 106.806 133.983C105.993 133.667 105.328 132.357 105.328 130.967C105.327 130.304 105.471 129.649 105.749 129.047C105.829 128.808 105.965 128.592 106.146 128.416C106.328 128.241 106.549 128.111 106.791 128.039C106.948 128.011 107.109 128.033 107.252 128.104C107.394 128.174 107.51 128.288 107.582 128.429C107.678 128.642 107.627 128.797 107.664 128.811C107.701 128.826 107.834 128.686 107.782 128.37C107.741 128.178 107.637 128.004 107.486 127.877C107.277 127.714 107.012 127.637 106.747 127.664C106.427 127.719 106.126 127.855 105.874 128.058C105.622 128.262 105.426 128.526 105.306 128.826C104.964 129.489 104.787 130.222 104.788 130.967C104.788 132.519 105.572 133.998 106.68 134.343C106.888 134.406 107.107 134.423 107.321 134.393C107.536 134.362 107.741 134.285 107.922 134.167C108.188 133.983 108.188 133.806 108.188 133.792Z" fill="#EB996E"/>
<path d="M106.71 101.543C107.594 101.284 108.539 101.318 109.403 101.639C110.266 101.96 111.002 102.551 111.5 103.323C110.811 102.803 110.067 102.359 109.282 101.999C108.443 101.758 107.581 101.605 106.71 101.543Z" fill="#263238"/>
<path d="M111.377 96.9226C111.518 96.9226 111.303 98.5483 111.57 100.476C111.8 101.634 112.164 102.762 112.656 103.837C112.656 103.837 112.331 103.565 112.006 102.991C111.588 102.228 111.313 101.395 111.193 100.534C110.977 99.3322 111.04 98.0969 111.377 96.9226Z" fill="#263238"/>
<path d="M143.228 123.022C143.183 122.934 143.516 122.662 144.144 122.412C145.812 121.77 147.664 121.788 149.319 122.463C149.94 122.728 150.272 123 150.228 123.088C150.132 123.294 148.639 122.713 146.724 122.713C144.809 122.713 143.316 123.25 143.228 123.022Z" fill="#263238"/>
<path d="M125.932 121.419C125.887 121.33 126.22 121.066 126.848 120.808C127.675 120.49 128.556 120.333 129.443 120.345C130.333 120.344 131.215 120.519 132.038 120.86C132.658 121.124 132.984 121.397 132.947 121.492C132.91 121.588 131.357 121.117 129.436 121.11C127.514 121.102 126.035 121.625 125.932 121.419Z" fill="#263238"/>
<path d="M141.891 124.258C141.907 124.41 141.907 124.562 141.891 124.714C141.891 125.038 141.891 125.45 141.928 125.957C141.965 126.465 141.928 127.149 141.972 127.885C141.944 128.734 142.069 129.581 142.342 130.386C142.698 131.43 143.315 132.367 144.135 133.109C144.954 133.852 145.95 134.375 147.028 134.63C147.647 134.781 148.285 134.835 148.921 134.792C149.582 134.762 150.233 134.626 150.85 134.387C152.165 133.897 153.285 132.996 154.043 131.82C154.761 130.697 155.122 129.384 155.078 128.054C155.078 126.737 155.078 125.472 155.078 124.258L155.256 124.435L145.646 124.346L142.859 124.295H142.12H141.846C142.163 124.26 142.481 124.245 142.8 124.251L145.542 124.199L155.256 124.111H155.5V124.295C155.5 125.509 155.5 126.774 155.5 128.091C155.549 129.493 155.17 130.878 154.413 132.063C153.609 133.308 152.421 134.261 151.027 134.777C150.372 135.028 149.681 135.169 148.98 135.197C148.311 135.236 147.641 135.174 146.991 135.013C145.86 134.741 144.819 134.184 143.967 133.395C143.115 132.607 142.482 131.613 142.127 130.511C141.862 129.669 141.752 128.787 141.802 127.907C141.802 127.171 141.802 126.487 141.839 125.928C141.876 125.369 141.839 125.023 141.876 124.699C141.869 124.552 141.874 124.404 141.891 124.258Z" fill="#263238"/>
<path d="M123.771 123.876C123.771 123.876 123.771 124.045 123.771 124.332V125.575C123.771 126.119 123.771 126.766 123.808 127.509C123.789 128.358 123.914 129.204 124.178 130.011C124.518 130.979 125.077 131.857 125.811 132.578C126.659 133.398 127.714 133.975 128.864 134.248C130.136 134.553 131.471 134.468 132.693 134.005C134.005 133.515 135.122 132.617 135.879 131.445C136.6 130.322 136.963 129.01 136.922 127.679C136.922 126.362 136.922 125.089 136.922 123.876L137.099 124.052L127.489 123.964L124.71 123.92H123.971H123.697C124.011 123.885 124.327 123.87 124.643 123.876L127.386 123.831L137.099 123.743H137.276V123.92C137.276 125.133 137.276 126.406 137.276 127.723C137.321 129.126 136.94 130.51 136.182 131.695C135.379 132.936 134.194 133.886 132.804 134.402C132.149 134.652 131.458 134.793 130.757 134.821C130.086 134.861 129.413 134.799 128.761 134.638C127.553 134.342 126.449 133.724 125.567 132.85C124.805 132.088 124.233 131.158 123.897 130.136C123.631 129.294 123.521 128.412 123.571 127.532C123.571 126.796 123.571 126.112 123.616 125.553C123.66 124.994 123.616 124.648 123.616 124.324C123.643 124.167 123.695 124.016 123.771 123.876Z" fill="#263238"/>
<path d="M142.054 124.795C140.363 125.05 138.644 125.05 136.953 124.795C138.643 124.53 140.364 124.53 142.054 124.795Z" fill="#263238"/>
<path d="M109.666 124.891C112.016 124.696 114.375 124.625 116.733 124.677C119.092 124.611 121.454 124.667 123.807 124.847C121.457 125.051 119.098 125.122 116.74 125.06C114.381 125.135 112.019 125.078 109.666 124.891Z" fill="#263238"/>
<path d="M185.712 263.708C187.373 266.776 189.889 269.302 192.957 270.981C196.026 272.661 199.516 273.423 203.009 273.176C207.136 272.888 211.042 271.209 214.08 268.415C217.119 265.621 219.109 261.88 219.723 257.809L224.011 208.971L206.839 204.749L199.823 243.001C199.823 243.001 196.157 259.03 185.712 263.708Z" fill="#FFBE9D"/>
<path d="M206.684 208.287L207.253 199.717C207.253 199.717 209.685 180.488 209.685 178.605C209.685 176.442 210.727 175.913 211.533 175.972C212.782 176.053 213.669 177.59 213.75 179.451C213.75 180.091 213.691 190.257 213.691 190.257C214.282 189.297 214.942 188.38 215.665 187.513C217.143 185.608 220.721 184.52 224.366 184.637C228.01 184.755 229.008 185.108 229.03 186.513C229.017 186.782 228.944 187.044 228.816 187.28C228.688 187.517 228.509 187.722 228.291 187.881C227.618 188.439 226.763 188.732 225.888 188.705C220.056 188.602 218.496 191.699 218.496 191.699L218.422 192.825C218.422 192.825 221.963 190.301 224.787 191.353C225.204 191.507 225.586 191.742 225.911 192.045C226.706 192.048 227.486 192.258 228.174 192.654C228.863 193.05 229.435 193.618 229.835 194.302C230.235 194.986 230.448 195.762 230.453 196.553C230.458 197.344 230.256 198.123 229.865 198.812C229.713 199.166 229.456 199.465 229.128 199.669C228.801 199.873 228.418 199.972 228.032 199.953C227.641 199.836 227.287 199.621 227.005 199.327C226.839 199.188 226.664 199.06 226.48 198.945L225.829 202.057C225.829 202.057 223.989 208.971 223.53 212.076" fill="#FFBE9D"/>
<path d="M208.358 207.618C209.422 207.912 210.524 207.132 211.1 206.191C211.677 205.249 211.921 204.138 212.423 203.152C213.946 200.21 217.598 198.812 218.995 195.796C219.187 195.377 219.291 194.803 218.921 194.524C218.552 194.244 218.093 194.472 217.716 194.678L208.106 199.975" fill="#FFBE9D"/>
<path d="M208.103 199.96C208.402 199.696 208.732 199.468 209.086 199.283C209.736 198.878 210.69 198.319 211.873 197.635L216.049 195.259L217.254 194.582C217.703 194.229 218.275 194.068 218.843 194.134C219.019 194.19 219.173 194.299 219.285 194.444C219.398 194.59 219.463 194.767 219.472 194.95C219.491 195.252 219.438 195.555 219.316 195.833C219.094 196.324 218.816 196.788 218.488 197.216C217.158 198.937 215.436 200.019 214.194 201.276C213.59 201.846 213.076 202.503 212.671 203.226C212.309 203.903 212.08 204.609 211.799 205.249C211.626 205.783 211.338 206.273 210.955 206.685C210.572 207.096 210.103 207.42 209.581 207.632C208.79 207.868 208.346 207.632 208.376 207.588C208.759 207.6 209.141 207.537 209.5 207.404C209.962 207.169 210.37 206.841 210.699 206.441C211.027 206.041 211.268 205.577 211.407 205.08C211.644 204.367 211.917 203.667 212.227 202.983C212.635 202.2 213.167 201.487 213.802 200.872C215.073 199.548 216.759 198.437 218.001 196.841C218.293 196.455 218.541 196.038 218.74 195.598C218.925 195.178 218.895 194.759 218.658 194.715C218.422 194.671 217.956 194.869 217.55 195.097L216.323 195.759L212.087 198.054C210.875 198.694 209.869 199.195 209.204 199.526C208.859 199.721 208.488 199.867 208.103 199.96Z" fill="#EB996E"/>
<path d="M218.286 192.906C218.352 192.209 218.582 191.539 218.959 190.949C219.397 190.344 220.019 189.895 220.733 189.669C221.628 189.376 222.563 189.227 223.505 189.227C224.472 189.237 225.437 189.153 226.388 188.977C227.184 188.816 227.924 188.448 228.532 187.911C228.734 187.725 228.891 187.496 228.991 187.241C229.09 186.986 229.131 186.712 229.108 186.439C229.098 186.239 229.031 186.045 228.916 185.88C228.879 185.88 228.916 186.094 228.953 186.447C228.95 186.693 228.892 186.936 228.785 187.159C228.678 187.381 228.523 187.577 228.332 187.734C227.741 188.197 227.046 188.51 226.307 188.646C225.376 188.799 224.433 188.867 223.49 188.852C222.513 188.842 221.541 188.993 220.615 189.301C219.84 189.57 219.177 190.087 218.73 190.772C218.44 191.233 218.272 191.76 218.242 192.302C218.2 192.504 218.215 192.712 218.286 192.906Z" fill="#EB996E"/>
<path d="M213.698 178.73C213.636 179.403 213.636 180.08 213.698 180.753C213.698 182.136 213.698 183.791 213.75 185.615C213.802 187.44 213.75 189.095 213.75 190.478C213.706 191.152 213.721 191.829 213.795 192.501C213.956 191.841 214.038 191.164 214.038 190.485C214.127 189.242 214.186 187.543 214.179 185.615C214.172 183.688 214.098 181.981 214.009 180.738C213.978 180.06 213.874 179.386 213.698 178.73Z" fill="#EB996E"/>
<path d="M220.593 195.164C220.799 195.114 220.998 195.037 221.184 194.936C221.425 194.813 221.69 194.743 221.96 194.73C222.23 194.718 222.5 194.762 222.751 194.862C222.906 194.945 223.036 195.067 223.129 195.215C223.222 195.364 223.276 195.533 223.284 195.708C223.307 196.147 223.275 196.587 223.188 197.017C223.065 197.559 223.152 198.126 223.431 198.606C223.608 198.853 223.841 199.055 224.11 199.196C224.38 199.336 224.679 199.411 224.984 199.415C225.283 199.413 225.579 199.351 225.853 199.232C226.128 199.113 226.375 198.94 226.58 198.724C226.966 198.339 227.224 197.846 227.32 197.312C227.436 196.446 227.423 195.569 227.283 194.708C227.206 194.125 227.029 193.56 226.758 193.038C226.551 192.67 226.359 192.53 226.344 192.545C226.329 192.56 226.462 192.743 226.617 193.104C226.82 193.633 226.947 194.187 226.994 194.752C227.092 195.581 227.079 196.419 226.957 197.245C226.863 197.713 226.62 198.138 226.262 198.456C225.905 198.775 225.454 198.969 224.976 199.011C224.736 199.009 224.499 198.952 224.285 198.844C224.07 198.735 223.885 198.578 223.742 198.386C223.519 197.982 223.448 197.512 223.542 197.061C223.625 196.598 223.645 196.125 223.601 195.656C223.58 195.432 223.501 195.218 223.371 195.034C223.242 194.849 223.066 194.701 222.862 194.605C222.575 194.496 222.265 194.456 221.959 194.489C221.654 194.523 221.36 194.628 221.103 194.796C220.755 195.002 220.549 195.112 220.593 195.164Z" fill="#EB996E"/>
<path d="M226.413 198.415C226.361 198.607 226.382 198.811 226.472 198.989C226.576 199.241 226.736 199.467 226.941 199.648C227.146 199.829 227.39 199.961 227.655 200.034C228.053 200.119 228.466 200.1 228.855 199.979C229.244 199.857 229.594 199.638 229.872 199.342C230.539 198.613 230.896 197.657 230.87 196.672C230.87 195.699 230.565 194.75 229.998 193.957C229.535 193.311 228.904 192.802 228.172 192.486C227.692 192.271 227.175 192.148 226.649 192.126C226.28 192.126 226.08 192.126 226.08 192.185C226.762 192.272 227.427 192.461 228.054 192.744C228.71 193.068 229.274 193.551 229.695 194.149C230.186 194.89 230.444 195.761 230.434 196.65C230.459 197.532 230.153 198.392 229.577 199.063C229.342 199.327 229.044 199.527 228.71 199.644C228.377 199.761 228.018 199.791 227.669 199.732C227.437 199.68 227.218 199.579 227.028 199.436C226.838 199.292 226.681 199.11 226.568 198.901C226.464 198.621 226.464 198.415 226.413 198.415Z" fill="#EB996E"/>
<path d="M219.389 205.212C219.072 205.112 218.731 205.112 218.413 205.212C217.581 205.393 216.833 205.843 216.284 206.492L216.624 206.595C216.579 206.14 216.505 205.688 216.403 205.241C216.108 203.66 215.379 202.191 214.296 200.997C215.02 202.377 215.595 203.829 216.011 205.33C216.114 205.786 216.188 206.227 216.24 206.639L216.299 207.095L216.587 206.735C217.078 206.134 217.732 205.686 218.472 205.447C219.027 205.278 219.389 205.264 219.389 205.212Z" fill="#EB996E"/>
<path d="M219.576 187.918C219.48 187.962 219.871 188.653 220.773 189.073C221.675 189.492 222.473 189.249 222.436 189.146C222.399 189.043 221.697 189.051 220.958 188.705C220.219 188.359 219.672 187.844 219.576 187.918Z" fill="#EB996E"/>
<path d="M203.725 213.833L225.302 215.371C225.302 215.371 221.983 253.365 221.34 259.258C220.697 265.15 216.905 274.036 203.725 274.036C190.545 274.036 188.09 269.571 182.229 260.376C189.14 255.609 200.117 241.375 200.117 241.375L203.725 213.833Z" fill="#F34D4D"/>
<path d="M213.897 218.946C213.786 219.266 213.652 219.578 213.498 219.88L212.293 222.411L208.035 231.157L207.82 230.9L213.416 229.245L219.101 227.582L219.515 227.464L219.315 227.839L214.88 236.409L213.571 238.874C213.427 239.175 213.256 239.463 213.061 239.734C213.174 239.42 213.308 239.112 213.461 238.815C213.771 238.182 214.2 237.344 214.673 236.306L218.968 227.678L219.182 227.935L213.505 229.612L207.902 231.245L207.495 231.363L207.687 230.988L212.1 222.33C212.64 221.307 213.076 220.469 213.401 219.843C213.541 219.531 213.707 219.231 213.897 218.946Z" fill="#E0E0E0"/>
<path d="M211.856 255.491C211.525 255.562 211.189 255.606 210.85 255.624L208.041 255.866L198.328 256.602L198.446 256.286L202.704 260.258L207.014 264.304L207.324 264.598H206.896L197.234 265.128L194.44 265.245C194.105 265.274 193.769 265.274 193.435 265.245C193.764 265.181 194.097 265.141 194.433 265.128L197.219 264.9L206.873 264.238L206.763 264.554L202.438 260.515L198.195 256.528L197.885 256.242H198.306L208.027 255.66L210.843 255.521C211.179 255.485 211.518 255.475 211.856 255.491Z" fill="#E0E0E0"/>
<path d="M250.274 119.763L228.267 111.9L206.505 119.66C203.725 120.962 201.286 121.749 201.286 124.324V137.168C201.235 146.189 203.71 155.046 208.434 162.745C213.155 170.515 220.15 176.663 228.482 180.363C237.352 177.487 244.005 169.807 248.108 163.245C252.845 155.55 255.333 146.693 255.293 137.668V126.119C255.293 122.441 253.327 120.646 250.274 119.763Z" fill="#F34D4D"/>
<g opacity="0.3">
<path d="M228.482 172.889C221.879 169.926 216.346 165.023 212.625 158.839C208.88 152.755 206.912 145.752 206.941 138.617V129.643C206.941 127.598 208.183 125.685 210.637 124.545L228.275 117.983V111.929L206.505 119.66C204.221 120.653 201.286 121.749 201.286 124.324V137.168C201.235 146.189 203.71 155.046 208.434 162.745C213.155 170.515 220.15 176.663 228.482 180.363V172.889Z" fill="black"/>
</g>
<g opacity="0.4">
<path d="M228.482 180.341C229.975 179.856 231.422 179.24 232.807 178.502C236.211 176.586 239.306 174.17 241.988 171.337C244.413 168.738 246.547 165.884 248.352 162.826C253.145 155.074 255.558 146.097 255.294 136.999V126.398C255.294 121.117 252.559 120.727 250.267 119.734L228.261 111.87V117.924L246.105 124.596C248.559 125.736 249.801 127.649 249.801 129.687V138.698C249.831 145.831 247.862 152.831 244.117 158.913C240.476 165.068 235.01 169.951 228.468 172.889L228.482 180.341Z" fill="black"/>
</g>
<path opacity="0.5" d="M234.108 138.043V136.307C234.108 134.799 233.506 133.353 232.435 132.287C231.363 131.22 229.91 130.621 228.394 130.621C226.879 130.621 225.425 131.22 224.354 132.287C223.282 133.353 222.68 134.799 222.68 136.307V138.073C221.924 138.186 221.234 138.565 220.734 139.141C220.235 139.717 219.96 140.453 219.96 141.214V151.439C219.96 152.282 220.296 153.09 220.895 153.686C221.494 154.282 222.306 154.617 223.153 154.617H233.857C234.704 154.617 235.516 154.282 236.115 153.686C236.714 153.09 237.051 152.282 237.051 151.439V141.214C237.051 140.414 236.749 139.643 236.203 139.056C235.658 138.468 234.91 138.106 234.108 138.043ZM229.947 148.886H227.152L227.589 146.878C227.283 146.68 227.05 146.389 226.924 146.048C226.798 145.707 226.786 145.335 226.89 144.987C226.994 144.639 227.208 144.334 227.5 144.117C227.793 143.899 228.148 143.782 228.513 143.782C228.877 143.782 229.233 143.899 229.525 144.117C229.817 144.334 230.032 144.639 230.135 144.987C230.239 145.335 230.227 145.707 230.101 146.048C229.976 146.389 229.742 146.68 229.437 146.878C229.629 147.629 229.947 148.886 229.947 148.886ZM232.904 138.029H223.915V136.307C223.962 135.156 224.455 134.066 225.29 133.268C226.126 132.469 227.24 132.023 228.398 132.023C229.557 132.023 230.67 132.469 231.506 133.268C232.341 134.066 232.834 135.156 232.881 136.307L232.904 138.029Z" fill="white"/>
<path d="M210.513 137.918C210.32 137.343 210.208 136.744 210.18 136.138C210.015 134.69 209.956 133.232 210.003 131.776C210.003 130.922 210.084 130.113 210.158 129.378C210.194 128.707 210.363 128.05 210.653 127.443C210.861 127.027 211.198 126.69 211.614 126.479C211.917 126.34 212.102 126.347 212.102 126.369C211.571 126.611 211.144 127.034 210.897 127.561C210.661 128.149 210.531 128.774 210.513 129.407C210.453 130.143 210.409 130.944 210.387 131.79C210.335 133.475 210.387 135.005 210.453 136.116C210.52 136.714 210.54 137.317 210.513 137.918Z" fill="white"/>
<path d="M210.829 143.501C210.726 143.501 210.63 142.979 210.615 142.324C210.6 141.67 210.682 141.14 210.785 141.14C210.889 141.14 210.985 141.662 210.999 142.317C211.014 142.972 210.94 143.501 210.829 143.501Z" fill="white"/>
<path d="M188.999 210.729L164.465 271.109H120.223V273.838H252.002L278.961 210.729H188.999Z" fill="#263238"/>
<path d="M226.506 246.377C225.619 249.415 223.032 251.335 220.725 250.673C218.419 250.011 217.273 246.995 218.16 243.957C219.047 240.919 221.642 238.999 223.948 239.661C226.255 240.323 227.401 243.339 226.506 246.377Z" fill="#FAFAFA"/>
</svg>
