<svg width="347" height="300" viewBox="0 0 347 300" fill="none" xmlns="http://www.w3.org/2000/svg">
<g clip-path="url(#clip0_104_1912)">
<path fill-rule="evenodd" clip-rule="evenodd" d="M304.808 273.846H41.947C39.2453 273.846 37.0348 276.057 37.0348 278.759C37.0348 281.46 39.2453 283.671 41.947 283.671H57.3906C60.1593 283.671 62.4293 285.941 62.4293 288.709C62.4293 291.478 60.1593 293.748 57.3906 293.748H55.7234C54.0042 293.748 52.5975 295.155 52.5975 296.882C52.5975 298.601 54.0042 300.007 55.7234 300.007C122.596 300.007 201.079 300.007 267.944 300.007C270.758 300.007 273.057 297.708 273.057 294.894C273.057 292.081 270.758 289.781 267.944 289.781H266.545C264.863 289.781 263.494 288.404 263.494 286.73C263.494 285.048 264.87 283.678 266.545 283.678H304.801C307.502 283.678 309.713 281.468 309.713 278.766C309.713 276.057 307.502 273.846 304.808 273.846ZM282.331 300C279.54 300 277.255 297.715 277.255 294.924V294.85C277.255 292.059 279.54 289.774 282.331 289.774C285.122 289.774 287.407 292.059 287.407 294.85V294.924C287.407 297.723 285.122 300 282.331 300Z" fill="#F34D4D"/>
<path fill-rule="evenodd" clip-rule="evenodd" d="M55.7383 273.705C25.0819 273.705 0 248.623 0 217.967C0 187.31 25.0819 162.228 55.7383 162.228C68.7035 162.228 79.3019 151.622 79.3019 138.665C79.3019 125.7 68.696 115.101 55.7383 115.101H52.9324C39.4537 115.101 28.4311 104.079 28.4311 90.5999C28.4311 77.1212 39.4537 66.0985 52.9324 66.0985H61.5362C66.7833 66.0985 71.0777 61.8041 71.0777 56.557C71.0777 51.3099 66.7833 47.0155 61.5362 47.0155H55.2099C51.5927 47.0155 48.6305 44.0533 48.6305 40.4287C48.6305 36.8115 51.5927 33.8494 55.2099 33.8494H97.7076C103.401 33.8494 108.053 29.1977 108.053 23.504C108.053 17.8178 103.401 13.1587 97.7076 13.1587H85.003C81.3858 13.1587 78.4236 10.1965 78.4236 6.57189C78.4236 2.95474 81.3858 -0.0148926 85.003 -0.0148926H271.115C275.841 -0.0148926 279.704 3.85531 279.704 8.57397C279.704 13.3001 275.834 17.1628 271.115 17.1628H267.557C260.137 17.1628 254.064 23.2361 254.064 30.6639C254.064 38.0842 260.137 44.1649 267.557 44.1649H308.5C313.226 44.1649 317.088 48.0277 317.088 52.7538C317.088 57.4799 313.226 61.3427 308.5 61.3427H300.253C293.406 61.3427 287.809 66.947 287.809 73.7868C287.809 80.6341 293.413 86.231 300.253 86.231H311.484C329.064 86.231 343.458 100.618 343.458 118.205C343.458 135.784 329.071 150.179 311.484 150.179H307.822C290.912 150.179 277.069 164.015 277.069 180.932C277.069 197.849 290.905 211.685 307.822 211.685H315.749C332.8 211.685 346.755 225.64 346.755 242.691C346.755 259.742 332.8 273.698 315.749 273.698C227.516 273.705 143.957 273.705 55.7383 273.705ZM293.101 17.1777C297.842 17.1777 301.689 13.3299 301.689 8.58886C301.689 3.84786 297.842 -7.1954e-06 293.101 -7.1954e-06C288.352 -7.1954e-06 284.512 3.84786 284.512 8.58886C284.512 13.3373 288.352 17.1777 293.101 17.1777ZM36.7371 47.0229C40.3766 47.0229 43.3239 44.0756 43.3239 40.4361C43.3239 36.7967 40.3766 33.8494 36.7371 33.8494C33.1051 33.8494 30.1503 36.7967 30.1503 40.4361C30.1578 44.0756 33.1051 47.0229 36.7371 47.0229Z" fill="#FCD4D4"/>
<path fill-rule="evenodd" clip-rule="evenodd" d="M97.2164 54.9492C97.1643 54.8599 96.8071 54.1826 96.7103 53.0215C95.4451 51.0864 95.5493 48.5485 96.3233 46.0924C96.8592 44.388 97.7225 42.7134 98.6678 41.3216C99.6204 39.9075 100.677 38.7614 101.578 38.1362C102.285 37.6449 102.955 37.4366 103.513 37.6152C104.19 37.831 104.637 38.2106 104.927 38.6572C105.939 38.8804 109.006 39.8108 109.549 42.959C110.45 43.413 111.38 44.2392 111.834 45.7426C112.921 46.2413 116.419 48.1838 115.086 52.0763C115.153 52.1433 115.213 52.2177 115.28 52.2922C116.151 53.3714 116.084 54.324 115.384 55.2246C114.811 55.9614 113.776 56.6238 112.504 57.2713C111.015 58.0379 108.366 59.0204 105.552 58.8715C103.669 58.7747 101.727 58.1719 100 56.6759C99.1888 56.5271 98.4594 56.2219 97.8714 55.7084C97.6407 55.5074 97.4323 55.2767 97.2537 55.0162L97.2164 54.9492Z" fill="#F34D4D"/>
<path fill-rule="evenodd" clip-rule="evenodd" d="M121.844 83.5069C122.142 83.7079 122.216 84.1172 122.015 84.4149C121.815 84.7126 121.405 84.7871 121.107 84.5861C113.226 79.2051 103.818 76.935 94.6487 77.7909C85.6431 78.6245 76.8681 82.4798 70.006 89.3346C62.1911 97.1494 58.2837 107.443 58.2837 117.743C58.2837 128.044 62.1911 138.345 70.006 146.152L129.83 205.976C130.083 206.229 130.083 206.646 129.83 206.899C129.577 207.152 129.16 207.152 128.907 206.899L69.0831 147.075C61.0152 139.007 56.9812 128.371 56.9812 117.736C56.9812 107.1 61.0152 96.4647 69.0831 88.3968C76.1611 81.3113 85.2263 77.3369 94.5371 76.4736C103.997 75.6102 113.709 77.9547 121.844 83.5069Z" fill="#111111"/>
<path fill-rule="evenodd" clip-rule="evenodd" d="M96.7922 192.2C93.0485 196.658 88.047 202.597 77.4635 200.104L77.4114 200.089C77.0616 199.985 76.8681 199.62 76.9723 199.278C79.9047 189.491 85.7398 186.194 91.0985 185.449C90.4138 185.256 89.7291 185.055 89.0592 184.847L89.0444 184.839C88.0619 184.541 87.0944 184.229 86.1566 183.909C85.0848 183.596 83.8419 184.727 82.3087 186.127C79.2572 188.91 75.1935 192.624 67.9667 189.855L67.9294 189.841C67.602 189.692 67.4531 189.305 67.602 188.977C70.4972 182.547 74.7395 180.694 78.5055 180.567C77.8506 180.195 77.2254 179.808 76.6225 179.398C74.8065 179.376 61.8562 178.699 63.4192 164.431C63.4564 164.074 63.7764 163.813 64.1411 163.851L64.2155 163.866C71.8294 165.109 73.4594 170.333 74.6725 174.256C75.0744 175.558 75.4317 176.689 75.9303 177.389C76.0494 177.404 76.1611 177.449 76.2653 177.523C77.9548 178.84 79.9717 179.964 82.2045 180.961C82.7851 181.095 83.3284 181.259 83.827 181.423C80.7532 178.461 78.178 173.429 82.2864 165.845C82.4576 165.525 82.852 165.406 83.1721 165.577L83.2316 165.615C89.8035 169.656 89.3272 175.126 88.9625 179.227C88.7839 181.296 88.635 182.964 89.5356 183.619C91.5972 184.244 93.7407 184.817 95.8991 185.375C96.7252 185.457 97.4993 185.576 98.2138 185.717C94.4403 182.822 91.173 177.679 94.2394 168.837C94.3584 168.495 94.7306 168.316 95.0655 168.435L95.0953 168.45C103.342 171.8 103.826 178.103 104.183 182.837C104.369 185.301 104.518 187.273 105.768 187.846C106.855 188.129 107.926 188.412 108.983 188.709C106.185 186.164 104.056 181.914 106.684 175.112C106.818 174.777 107.19 174.605 107.525 174.739L107.569 174.762C114.245 177.761 114.461 182.956 114.617 186.856C114.699 188.836 114.759 190.429 115.719 190.897C116.806 191.314 117.84 191.746 118.815 192.215C118.83 192.222 118.845 192.23 118.867 192.237C119.15 192.371 119.433 192.513 119.708 192.654C121.74 193.703 123.787 195.274 125.141 197.291C126.265 198.965 126.905 200.953 126.682 203.2C126.645 203.557 126.325 203.818 125.968 203.788C125.61 203.751 125.35 203.431 125.38 203.074C125.573 201.153 125.015 199.457 124.055 198.02C122.842 196.204 120.974 194.775 119.105 193.815C118.86 193.688 118.607 193.562 118.346 193.435C116.761 193.153 115.295 194.894 113.471 197.06C110.018 201.168 105.403 206.654 95.6311 204.354L95.579 204.339C95.2292 204.235 95.0357 203.87 95.1399 203.528C98.3254 192.892 105.225 190.563 110.755 190.6C109.028 190.079 107.227 189.588 105.381 189.111C105.314 189.096 105.039 189.037 104.607 188.91C103.706 188.68 102.791 188.449 101.876 188.226C100.231 188.106 98.6901 189.945 96.7922 192.2Z" fill="#F34D4D"/>
<path fill-rule="evenodd" clip-rule="evenodd" d="M58.6559 125.714C54.5847 125.759 49.1441 125.826 45.6237 119.038L45.6088 119.008C45.46 118.681 45.6088 118.294 45.9363 118.145C51.9798 115.451 56.2147 116.604 59.0652 118.77C58.9908 118.599 58.9089 118.428 58.8345 118.257C58.827 118.234 58.8196 118.22 58.8121 118.197C58.5442 117.587 58.2837 116.977 58.0456 116.374C58.0381 116.359 58.0307 116.344 58.0232 116.329C57.7851 115.696 56.6687 115.562 55.2769 115.391C52.404 115.041 48.571 114.58 46.7103 109.474C46.7029 109.452 46.688 109.422 46.6806 109.392C46.5764 109.05 46.7773 108.685 47.1197 108.581C51.5034 107.286 54.3465 108.373 56.17 110.077C56.1253 109.802 56.0881 109.534 56.0584 109.266C55.1131 108.112 49.7991 101.005 58.0307 95.3556C58.3284 95.1546 58.7377 95.2291 58.9387 95.5268L58.9536 95.5491C61.8264 100.216 59.7723 103.49 58.2391 105.939C57.7702 106.691 57.3534 107.346 57.2045 107.874C57.2417 107.949 57.2641 108.038 57.2715 108.127C57.3459 109.579 57.6585 111.112 58.1349 112.704C58.1944 112.824 58.2539 112.935 58.306 113.047C58.6856 110.204 60.4049 107.011 65.8604 105.82C66.2176 105.746 66.56 105.969 66.6419 106.319L66.6567 106.401C67.5052 111.767 64.3793 114.014 62.0274 115.704C60.9333 116.493 60.0476 117.125 60.07 117.773C60.6654 119.113 61.3129 120.467 61.9902 121.829C62.1614 122.067 62.3177 122.306 62.4591 122.536C62.4963 119.351 63.9923 115.674 69.6562 113.434C69.9911 113.3 70.3707 113.464 70.5046 113.806C70.5121 113.836 70.5269 113.858 70.5344 113.888C72.5067 119.797 69.3808 122.931 67.0363 125.283C65.8827 126.436 64.9598 127.367 65.1757 128.163C65.3989 128.617 65.6148 129.064 65.8306 129.51C66.1209 127.032 67.602 124.345 72.0006 122.774C72.343 122.655 72.7151 122.834 72.8342 123.176L72.8416 123.206C74.3227 128.185 71.6433 130.686 69.6338 132.562C68.6812 133.447 67.922 134.162 68.0709 134.757C68.3388 135.501 68.5695 136.231 68.7705 136.938L68.7779 136.968C68.7854 136.99 68.7928 137.02 68.7928 137.042C69.6115 140.094 69.6934 142.862 68.4504 145.155C68.2793 145.475 67.8848 145.594 67.5648 145.423C67.2447 145.251 67.1256 144.857 67.2968 144.537C68.3462 142.602 68.2718 140.161 67.5424 137.422C67.0214 136.588 65.5106 136.603 63.635 136.625C59.869 136.67 54.8526 136.722 51.5927 130.455L51.5779 130.418C51.429 130.091 51.5779 129.704 51.9053 129.555C58.2837 126.704 62.4814 128.505 65.0938 131.043C64.7365 130.277 64.3644 129.503 63.9774 128.721C63.9699 128.699 63.955 128.684 63.9476 128.662C63.9104 128.595 63.836 128.446 63.7392 128.237C63.4489 127.657 63.1512 127.069 62.8535 126.473C62.2209 125.67 60.6207 125.685 58.6559 125.714Z" fill="#F34D4D"/>
<path fill-rule="evenodd" clip-rule="evenodd" d="M128.171 85.5091C126.853 84.2141 124.271 83.0158 119.894 82.5767C119.857 82.5693 119.827 82.5693 119.798 82.5693C119.455 82.5618 119.269 82.8 119.381 83.0902C120.817 86.7669 122.715 88.7318 124.449 89.5803C126.295 90.4883 127.932 90.1608 128.751 89.2602C129.57 88.3597 129.577 86.8935 128.171 85.5091Z" fill="#111111"/>
<path fill-rule="evenodd" clip-rule="evenodd" d="M117.788 85.0549C117.081 83.3506 115.161 81.2443 111.291 79.1454C111.261 79.1305 111.231 79.1157 111.201 79.1008C110.889 78.9594 110.628 79.1082 110.621 79.4208C110.524 83.3654 111.514 85.9108 112.779 87.3622C114.134 88.9102 115.764 89.2452 116.865 88.7316C117.974 88.2255 118.547 86.871 117.788 85.0549Z" fill="#111111"/>
<path fill-rule="evenodd" clip-rule="evenodd" d="M107.599 82.2788C106.803 80.6116 104.771 78.6095 100.804 76.7191C100.774 76.7042 100.744 76.6893 100.715 76.6744C100.394 76.5554 100.141 76.7117 100.149 77.0242C100.26 80.9689 101.377 83.4622 102.724 84.8465C104.16 86.3202 105.805 86.5658 106.877 86.0001C107.949 85.4345 108.447 84.0576 107.599 82.2788Z" fill="#111111"/>
<path fill-rule="evenodd" clip-rule="evenodd" d="M122.388 76.0196C120.542 75.9303 117.818 76.7638 114.268 79.3613C114.238 79.3837 114.216 79.3986 114.186 79.4209C113.925 79.6442 113.94 79.9419 114.223 80.0833C117.751 81.8621 120.475 82.0556 122.328 81.5346C124.308 80.9764 125.305 79.6442 125.32 78.4236C125.327 77.2178 124.352 76.1163 122.388 76.0196Z" fill="#111111"/>
<path fill-rule="evenodd" clip-rule="evenodd" d="M111.886 71.8146C110.063 72.0899 107.554 73.4445 104.585 76.6895C104.562 76.7119 104.54 76.7416 104.518 76.764C104.309 77.0319 104.384 77.3222 104.689 77.404C108.5 78.446 111.209 78.1036 112.921 77.2254C114.751 76.2876 115.466 74.7768 115.235 73.5859C115.012 72.41 113.836 71.5243 111.886 71.8146Z" fill="#111111"/>
<path fill-rule="evenodd" clip-rule="evenodd" d="M87.7866 154.458C88.3745 156.207 88.315 159.058 86.7818 163.181C86.7743 163.211 86.7595 163.248 86.7446 163.27C86.6032 163.583 86.3055 163.65 86.0971 163.419C83.4251 160.509 82.4948 157.941 82.4948 156.014C82.4948 153.952 83.507 152.635 84.6681 152.292C85.8291 151.95 87.1539 152.59 87.7866 154.458Z" fill="#111111"/>
<path fill-rule="evenodd" clip-rule="evenodd" d="M79.086 146.197C79.674 147.946 79.6145 150.796 78.0813 154.919C78.0738 154.949 78.059 154.986 78.0441 155.016C77.9027 155.329 77.6049 155.388 77.3965 155.158C74.7246 152.248 73.7943 149.68 73.7943 147.76C73.7943 145.698 74.8065 144.381 75.9676 144.038C77.1361 143.696 78.4534 144.336 79.086 146.197Z" fill="#111111"/>
<path fill-rule="evenodd" clip-rule="evenodd" d="M72.4174 159.556C74.1292 160.241 76.9798 160.345 81.1849 159.058C81.2147 159.05 81.2519 159.035 81.2816 159.028C81.6017 158.901 81.6835 158.611 81.4603 158.388C78.7065 155.552 76.1983 154.48 74.2781 154.361C72.2239 154.242 70.8395 155.173 70.4376 156.319C70.0283 157.458 70.5865 158.82 72.4174 159.556Z" fill="#111111"/>
<path fill-rule="evenodd" clip-rule="evenodd" d="M97.0601 54.3762C97.343 54.1529 97.7523 54.205 97.9756 54.4879C98.1989 54.7707 98.1468 55.18 97.864 55.4033C91.6121 60.2857 89.9747 67.7284 88.3968 74.9255C85.8589 86.4542 83.4549 97.3875 63.4266 97.3726C63.0694 97.3726 62.7717 97.0824 62.7717 96.7177C62.7717 96.3604 63.0619 96.0627 63.4266 96.0627C82.4055 96.0776 84.6978 85.643 87.1241 74.6427C88.7467 67.2223 90.4361 59.5563 97.0601 54.3762Z" fill="#7F6A81"/>
<path fill-rule="evenodd" clip-rule="evenodd" d="M96.889 55.2024C96.8369 55.113 96.4647 54.406 96.3605 53.2003C95.0506 51.1908 95.1548 48.556 95.9586 46.0032C96.5168 44.2318 97.4099 42.4977 98.3924 41.0464C99.3823 39.5802 100.476 38.3893 101.414 37.7344C102.151 37.2208 102.843 37.0124 103.416 37.1911C104.116 37.4143 104.585 37.8088 104.882 38.2777C105.939 38.5084 109.117 39.4685 109.683 42.7433C110.621 43.2196 111.588 44.0755 112.057 45.6311C113.181 46.1446 116.82 48.1616 115.436 52.2104C115.503 52.2848 115.57 52.3593 115.637 52.4337C116.545 53.5501 116.471 54.5474 115.741 55.4777C115.146 56.2443 114.067 56.9291 112.757 57.5989C111.209 58.3878 108.462 59.4149 105.545 59.2661C103.595 59.1619 101.57 58.5441 99.7842 56.9886C98.9431 56.8398 98.184 56.5123 97.5737 55.9838C97.3355 55.7754 97.1197 55.5373 96.9262 55.2619L96.889 55.2024ZM112.794 47.5885C113.382 48.5486 113.516 49.665 112.675 51.0493C113.181 51.0791 113.754 51.1759 114.305 51.4215C114.744 49.5831 113.754 48.3328 112.794 47.5885ZM114.29 52.9323C114.268 52.9175 114.253 52.9026 114.238 52.8877C113.33 52.1955 112.072 52.322 111.611 52.3965C111.105 52.9175 110.472 53.4384 109.75 53.9371C107.986 55.1651 105.679 56.2667 103.491 56.7802C103.029 56.8919 102.568 56.9737 102.121 57.0258C103.252 57.6287 104.443 57.9041 105.612 57.9636C108.246 58.105 110.755 57.1672 112.169 56.4453C113.33 55.8499 114.26 55.2768 114.714 54.6888C115.042 54.2646 115.064 53.8031 114.625 53.2673C114.521 53.1333 114.409 53.0217 114.29 52.9323ZM105.359 39.7737C105.411 40.2723 105.374 40.7635 105.322 41.1506C105.463 41.1654 105.597 41.1878 105.738 41.2175C106.728 41.4334 107.286 41.7683 107.688 42.1777C107.822 42.1925 108.001 42.2074 108.202 42.2446C107.629 40.8008 106.297 40.1011 105.359 39.7737ZM108.782 43.7778C109.006 44.0904 109.288 44.4179 109.713 44.7454C109.899 44.8942 110.092 45.0356 110.286 45.1845L110.539 45.3706C110.077 44.5072 109.393 44.0383 108.782 43.7778ZM96.6954 50.1711C96.8964 49.4715 97.2016 48.7049 97.6407 47.8862C98.8389 45.6459 100.179 43.815 101.548 42.6391C102.344 41.9544 103.156 41.4855 103.967 41.2696C104.123 40.5179 104.302 38.8582 103.014 38.4563C102.858 38.4042 102.545 38.5456 102.144 38.821C101.332 39.3866 100.365 40.4509 99.4567 41.7832C98.5412 43.1378 97.7077 44.7603 97.1867 46.3977C96.7996 47.6852 96.5912 48.9877 96.6954 50.1711ZM97.6258 52.8133C97.6407 52.8877 97.6481 52.9696 97.6407 53.044C97.7077 53.9148 97.9607 54.4283 98.0128 54.54C98.1319 54.7111 98.2733 54.86 98.4222 54.994C98.8836 55.3959 99.4716 55.6266 100.156 55.7308H100.171C101.064 55.8573 102.099 55.7606 103.185 55.5075C105.21 55.0312 107.353 54.0041 108.998 52.8654C109.787 52.3146 110.457 51.7415 110.941 51.1908C112.548 49.345 111.782 48.1244 110.643 47.1345C110.263 46.7996 109.876 46.5093 109.504 46.2339C109.296 46.0776 109.095 45.9288 108.909 45.7799C108.016 45.0803 107.621 44.4328 107.279 43.8671C106.907 43.2494 106.602 42.7507 105.455 42.4977C105.188 42.4381 104.905 42.4307 104.622 42.4754H104.607C103.9 42.587 103.163 42.9889 102.411 43.6364C101.169 44.7082 99.933 46.4051 98.8017 48.5039C97.8193 50.3348 97.5886 51.7936 97.6258 52.8133Z" fill="#F34D4D"/>
<path fill-rule="evenodd" clip-rule="evenodd" d="M87.4888 76.3247C87.7047 75.573 87.8386 74.732 87.9428 73.9579C88.1661 72.2163 88.181 70.4152 87.9131 68.681C87.0497 63.233 83.5442 59.9433 78.1706 58.879C77.7464 58.7972 77.337 59.013 77.1658 59.4075C75.0298 64.4536 75.774 69.202 79.7931 72.9755C81.0732 74.1738 82.5767 75.1785 84.1396 75.9674C84.8318 76.3172 85.6058 76.6745 86.3501 76.9201C86.5883 77.002 86.8264 76.9796 87.0572 76.8606C87.273 76.7564 87.4219 76.5703 87.4888 76.3247Z" fill="#8B2C2C"/>
<path fill-rule="evenodd" clip-rule="evenodd" d="M79.2274 92.4085C79.5326 91.694 79.9494 90.9423 80.3513 90.2799C81.2667 88.7839 82.3757 87.3698 83.6782 86.1864C87.7568 82.4725 92.5499 82.1004 97.4099 84.6309C97.7895 84.8318 97.9756 85.2561 97.8565 85.6728C96.368 90.9497 92.8178 94.1873 87.3177 94.619C85.5686 94.7529 83.7749 94.5966 82.0557 94.2394C81.2965 94.0831 80.4629 93.8747 79.7336 93.6068C79.4954 93.5174 79.3242 93.3537 79.22 93.123C79.1233 92.8774 79.1233 92.6392 79.2274 92.4085Z" fill="#8B2C2C"/>
<path fill-rule="evenodd" clip-rule="evenodd" d="M72.3355 95.8468C72.7002 95.7054 73.0798 95.5119 73.4147 95.3258C74.1813 94.8941 74.9107 94.3657 75.521 93.7405C77.4487 91.7682 77.724 89.3865 76.5481 86.9081C76.4588 86.7146 76.2429 86.6104 76.0345 86.6625C73.3701 87.31 71.688 89.0219 71.3754 91.7608C71.2787 92.6316 71.3233 93.5321 71.4722 94.3955C71.5392 94.7751 71.6285 95.1993 71.7476 95.564C71.7848 95.6831 71.8666 95.7724 71.9783 95.8319C72.0974 95.884 72.2164 95.8915 72.3355 95.8468Z" fill="#8B2C2C"/>
<path fill-rule="evenodd" clip-rule="evenodd" d="M90.131 67.1552C90.5106 67.2297 90.9423 67.2669 91.3293 67.2892C92.2001 67.3339 93.1006 67.2669 93.9565 67.0659C96.6359 66.4184 98.1319 64.5428 98.4519 61.8188C98.4743 61.603 98.3477 61.4095 98.1468 61.3425C95.5493 60.4791 93.2123 61.0373 91.493 63.1957C90.9423 63.8805 90.5106 64.6694 90.1757 65.4806C90.0268 65.8379 89.8779 66.2398 89.7886 66.6194C89.7589 66.7459 89.7812 66.8575 89.8482 66.9692C89.9077 67.0659 90.0045 67.1329 90.131 67.1552Z" fill="#8B2C2C"/>
<path fill-rule="evenodd" clip-rule="evenodd" d="M264.573 68.2942C264.446 67.9518 264.625 67.5797 264.96 67.4531C265.295 67.3266 265.674 67.5052 265.801 67.8402C265.816 67.8848 271.948 84.6458 277.605 89.3793C277.88 89.61 277.918 90.0268 277.687 90.3022C277.456 90.5776 277.039 90.6148 276.764 90.3841C270.84 85.4198 264.595 68.3463 264.573 68.2942Z" fill="#7F6A81"/>
<path fill-rule="evenodd" clip-rule="evenodd" d="M250.38 58.5741C250.603 54.4285 254.614 53.9373 255.813 53.8778C256.803 52.6497 257.986 52.2255 259.006 52.1436C260.71 49.4047 263.918 49.695 264.96 49.8661C265.399 49.5536 265.965 49.3675 266.672 49.4196C267.252 49.4642 267.803 49.9108 268.279 50.6402C268.882 51.5631 269.433 53.0367 269.798 54.7188C270.155 56.3785 270.326 58.2689 270.185 60.0701C269.984 62.6601 269.12 65.0716 267.208 66.4113C266.739 67.3416 266.218 67.8328 266.054 67.9817C266.024 68.0114 265.987 68.0412 265.95 68.0635C265.689 68.2347 265.406 68.3761 265.109 68.4729C264.364 68.7334 263.568 68.7483 262.757 68.5771C260.576 69.3288 258.529 69.1576 256.728 68.5324C254.041 67.6095 251.935 65.6819 250.834 64.4092C249.896 63.3225 249.174 62.3178 248.913 61.4098C248.601 60.3082 248.891 59.3853 250.119 58.7081C250.201 58.656 250.29 58.6113 250.38 58.5741Z" fill="#F34D4D"/>
<path fill-rule="evenodd" clip-rule="evenodd" d="M224.643 84.5937C224.345 84.7947 223.936 84.7202 223.735 84.4225C223.534 84.1248 223.608 83.7155 223.906 83.5145C232.041 77.9548 241.754 75.6178 251.221 76.4961C260.524 77.3594 269.589 81.3338 276.675 88.4193C284.742 96.4871 288.776 107.123 288.776 117.758C288.776 128.394 284.742 139.03 276.675 147.097L216.85 206.922C216.597 207.175 216.18 207.175 215.92 206.922C215.667 206.669 215.667 206.252 215.92 205.999L275.744 146.175C283.559 138.36 287.466 128.059 287.466 117.766C287.466 107.465 283.559 97.1644 275.744 89.357C268.882 82.4949 260.107 78.647 251.102 77.8134C241.932 76.9426 232.525 79.2052 224.643 84.5937Z" fill="#111111"/>
<path fill-rule="evenodd" clip-rule="evenodd" d="M259.713 190.22C252.717 193.294 248.519 189.833 245.378 187.243C243.86 185.993 242.624 184.973 241.605 185.211C241.024 185.472 240.451 185.732 239.878 186C239.617 186.127 239.439 186.209 239.372 186.239C239.357 186.246 239.335 186.253 239.32 186.261C238.531 186.626 237.757 186.998 237.005 187.362C240.63 187.027 245.028 188.255 248.206 194.478C248.37 194.798 248.244 195.192 247.923 195.356L247.886 195.371C241.419 198.214 237.541 195.013 234.638 192.624C233.194 191.434 232.026 190.466 231.096 190.801C228.811 192.475 227.225 194.321 226.831 196.487C226.764 196.844 226.422 197.075 226.072 197.016C225.715 196.949 225.484 196.614 225.543 196.256C226.012 193.696 227.806 191.597 230.359 189.729C230.389 189.707 230.418 189.684 230.448 189.662C231.051 189.23 231.691 188.806 232.361 188.397C232.852 188.032 232.703 186.998 232.517 185.71C232.13 183.001 231.617 179.384 235.844 176.444C235.866 176.429 235.889 176.407 235.918 176.392C236.231 176.206 236.633 176.303 236.819 176.608C239.268 180.582 238.724 183.604 237.392 185.718C237.839 185.502 238.293 185.293 238.747 185.077C239.417 184.594 239.275 183.291 239.104 181.669C238.754 178.364 238.285 173.958 243.547 170.587L243.607 170.549C243.919 170.371 244.321 170.482 244.5 170.795C247.507 176.094 246.361 179.897 244.396 182.406C244.656 182.316 244.924 182.227 245.207 182.145C246.584 181.512 247.946 180.865 249.248 180.188C249.665 179.704 249.375 178.647 249.018 177.352C248.244 174.561 247.216 170.84 251.258 167.193L251.31 167.148C251.593 166.917 252.002 166.962 252.233 167.245C255.731 171.591 255.068 175.156 253.58 177.605C253.692 177.553 253.803 177.501 253.922 177.449C255.046 176.682 256.058 175.871 256.922 175L256.929 174.985L256.944 174.978C257.13 174.792 257.301 174.606 257.472 174.42C257.532 174.353 257.606 174.3 257.681 174.263C257.897 173.757 257.986 172.991 258.09 172.105C258.433 169.232 258.894 165.392 264.059 163.561L264.089 163.553C264.431 163.449 264.796 163.65 264.9 163.992C267.766 173.556 259.162 175.759 257.711 176.057C257.517 176.25 257.316 176.436 257.108 176.623C259.601 176.436 262.504 177.374 265.101 181.133C265.31 181.431 265.235 181.84 264.937 182.041C264.915 182.056 264.893 182.071 264.863 182.085C260.211 184.899 256.937 182.852 254.481 181.319C253.29 180.575 252.337 179.979 251.749 180.322C251.734 180.329 251.719 180.336 251.704 180.344C251.146 180.656 250.566 180.969 249.985 181.267C249.955 181.282 249.926 181.297 249.896 181.311C249.732 181.393 249.568 181.483 249.405 181.565C252.992 181.661 257.011 183.418 260.025 189.312C260.189 189.632 260.063 190.027 259.742 190.191L259.713 190.22Z" fill="#F34D4D"/>
<path fill-rule="evenodd" clip-rule="evenodd" d="M307.577 110.048C303.193 118.488 296.42 118.413 291.337 118.354C288.814 118.324 286.752 118.302 285.904 119.411C285.531 120.155 285.152 120.892 284.787 121.629C284.653 121.911 284.556 122.097 284.512 122.187C284.504 122.209 284.489 122.224 284.482 122.246C283.842 123.541 283.232 124.814 282.666 126.072C285.844 122.574 291.233 119.731 299.747 123.526C300.074 123.675 300.223 124.062 300.074 124.39L300.06 124.42C296.011 132.219 289.759 132.145 285.07 132.093C282.644 132.063 280.694 132.041 280.001 133.194C279.071 136.685 278.967 139.796 280.314 142.289C280.485 142.609 280.366 143.004 280.046 143.175C279.726 143.346 279.332 143.227 279.16 142.907C277.627 140.072 277.731 136.618 278.751 132.815C278.759 132.793 278.759 132.77 278.766 132.748L278.781 132.696C279.027 131.803 279.317 130.887 279.652 129.964C279.875 129.123 278.878 128.193 277.642 127.039C275.149 124.71 271.822 121.606 273.653 115.444L273.66 115.414C273.779 115.072 274.152 114.893 274.494 115.012C280.307 117.081 281.996 120.728 282.19 123.958C282.547 123.206 282.912 122.447 283.291 121.681C283.604 120.579 282.405 119.381 280.91 117.885C277.992 114.96 274.099 111.06 276.556 103.714C276.563 103.684 276.57 103.662 276.585 103.632C276.719 103.297 277.099 103.133 277.434 103.26C284.832 106.185 286.499 111.09 286.365 115.168C286.633 114.707 286.938 114.23 287.28 113.754C288.136 112.027 288.97 110.301 289.722 108.596C289.781 107.681 288.628 106.855 287.191 105.82C284.274 103.721 280.381 100.923 281.438 94.2766L281.453 94.1948C281.527 93.845 281.877 93.6142 282.234 93.6961C289.379 95.2516 291.352 99.5907 291.664 103.253C291.806 102.932 291.962 102.598 292.133 102.255C292.743 100.231 293.138 98.2808 293.227 96.435C293.235 96.3234 293.264 96.2192 293.316 96.1299C293.138 95.4228 292.602 94.5669 291.984 93.577C290.079 90.5255 287.534 86.4618 291.084 80.6863L291.099 80.664C291.3 80.3663 291.709 80.2918 292.007 80.4928C302.307 87.5633 295.497 96.4722 294.418 97.7747C294.358 98.2957 294.277 98.8241 294.18 99.36C296.428 97.0453 300.037 95.4451 305.776 97.1421C306.118 97.2463 306.319 97.6035 306.215 97.9533C306.207 97.9831 306.2 98.0054 306.185 98.0352C303.885 104.369 299.114 104.949 295.542 105.381C293.733 105.597 292.289 105.776 291.947 106.661C291.94 106.676 291.932 106.691 291.925 106.706C291.62 107.465 291.292 108.232 290.957 109.006C290.95 109.028 290.942 109.05 290.927 109.065C290.734 109.497 290.54 109.929 290.339 110.368C293.897 107.391 299.315 105.619 307.234 109.155C307.562 109.303 307.711 109.69 307.562 110.018L307.577 110.048Z" fill="#F34D4D"/>
<path fill-rule="evenodd" clip-rule="evenodd" d="M217.58 85.5091C218.897 84.2141 221.48 83.0158 225.856 82.5767C225.886 82.5693 225.923 82.5693 225.953 82.5693C226.295 82.5618 226.481 82.8 226.369 83.0902C224.933 86.7669 223.035 88.7318 221.301 89.5803C219.455 90.4883 217.818 90.1608 216.999 89.2602C216.18 88.3597 216.173 86.8935 217.58 85.5091Z" fill="#111111"/>
<path fill-rule="evenodd" clip-rule="evenodd" d="M227.962 85.0552C228.669 83.3508 230.589 81.2445 234.46 79.1457C234.489 79.1308 234.519 79.1159 234.549 79.101C234.862 78.9596 235.122 79.1085 235.13 79.4211C235.226 83.3657 234.236 85.9111 232.971 87.3624C231.617 88.9105 229.987 89.2454 228.885 88.7319C227.776 88.2258 227.203 86.8712 227.962 85.0552Z" fill="#111111"/>
<path fill-rule="evenodd" clip-rule="evenodd" d="M238.151 82.279C238.948 80.6119 240.979 78.6098 244.946 76.7193C244.976 76.7045 245.006 76.6896 245.036 76.6747C245.356 76.5556 245.609 76.7119 245.601 77.0245C245.49 80.9691 244.366 83.4624 243.026 84.8468C241.59 86.3204 239.945 86.566 238.873 86.0004C237.801 85.4347 237.303 84.0578 238.151 82.279Z" fill="#111111"/>
<path fill-rule="evenodd" clip-rule="evenodd" d="M223.37 76.0198C225.216 75.9305 227.94 76.7641 231.49 79.3616C231.52 79.3839 231.542 79.3988 231.572 79.4211C231.832 79.6444 231.818 79.9421 231.535 80.0835C228.007 81.8623 225.283 82.0558 223.43 81.5349C221.45 80.9767 220.453 79.6444 220.438 78.4238C220.423 77.2181 221.398 76.1166 223.37 76.0198Z" fill="#111111"/>
<path fill-rule="evenodd" clip-rule="evenodd" d="M233.864 71.8146C235.688 72.0899 238.196 73.4445 241.166 76.6895C241.188 76.7119 241.21 76.7416 241.233 76.764C241.441 77.0319 241.366 77.3222 241.061 77.404C237.251 78.446 234.542 78.1036 232.83 77.2254C230.999 76.2876 230.284 74.7768 230.515 73.5859C230.738 72.41 231.914 71.5243 233.864 71.8146Z" fill="#111111"/>
<path fill-rule="evenodd" clip-rule="evenodd" d="M261.544 150.863C260.956 152.612 261.015 155.463 262.548 159.586C262.556 159.616 262.571 159.653 262.586 159.676C262.734 159.988 263.025 160.055 263.233 159.817C265.905 156.907 266.835 154.339 266.835 152.419C266.835 150.357 265.823 149.033 264.662 148.698C263.494 148.355 262.169 148.995 261.544 150.863Z" fill="#111111"/>
<path fill-rule="evenodd" clip-rule="evenodd" d="M270.244 142.609C269.656 144.358 269.716 147.209 271.249 151.332C271.256 151.362 271.271 151.399 271.286 151.429C271.428 151.742 271.725 151.801 271.934 151.57C274.606 148.66 275.536 146.093 275.536 144.172C275.536 142.111 274.524 140.786 273.363 140.451C272.194 140.101 270.869 140.741 270.244 142.609Z" fill="#111111"/>
<path fill-rule="evenodd" clip-rule="evenodd" d="M276.913 155.962C275.201 156.646 272.35 156.751 268.145 155.463C268.116 155.456 268.078 155.441 268.049 155.433C267.728 155.307 267.647 155.024 267.87 154.793C270.624 151.957 273.132 150.878 275.052 150.767C277.106 150.648 278.491 151.578 278.893 152.724C279.302 153.87 278.736 155.232 276.913 155.962Z" fill="#111111"/>
<path fill-rule="evenodd" clip-rule="evenodd" d="M265.406 67.2224C265.525 67.1257 265.927 66.7387 266.299 65.9944C266.322 65.92 266.352 65.8455 266.404 65.7786C266.82 64.8408 267.155 63.4043 266.932 61.3353C266.672 58.9685 266.166 56.9292 265.406 55.4704C264.766 54.2275 263.962 53.4386 263.01 53.2823C261.849 53.0888 261.38 53.4386 260.807 53.8703C260.271 54.2722 259.661 54.7336 258.581 55.0388C258.395 55.0909 258.127 55.1653 257.859 55.2323C257.383 55.3588 256.892 55.4928 256.46 55.6416C255.031 56.1328 253.863 56.9813 254.667 59.296C254.681 59.3481 254.704 59.4002 254.726 59.4597C254.734 59.482 254.748 59.5118 254.756 59.5341C255.001 60.1593 255.374 60.8515 255.843 61.5734C256.937 63.248 258.544 65.0045 260.241 66.2028C261.134 66.8354 262.042 67.3043 262.906 67.5276C262.95 67.535 262.987 67.5425 263.025 67.5574C263.672 67.7062 264.29 67.7062 264.848 67.5127C265.034 67.4383 265.22 67.349 265.406 67.2224ZM254.302 55.2546C253.394 55.9244 252.851 56.9069 253.111 58.5071C252.635 58.3433 252.062 58.2242 251.459 58.2466C251.734 56.371 253.126 55.5821 254.302 55.2546ZM250.112 58.5517C250.342 54.287 254.466 53.7735 255.701 53.7214C256.721 52.4561 257.941 52.0245 258.983 51.9352C260.732 49.1144 264.037 49.4121 265.109 49.5907C265.563 49.2707 266.136 49.0772 266.873 49.1367C267.475 49.1814 268.041 49.6428 268.532 50.3871C269.157 51.3397 269.723 52.8506 270.095 54.5848C270.46 56.2966 270.639 58.2391 270.497 60.0923C270.289 62.7568 269.403 65.2427 267.431 66.6121C266.947 67.5648 266.411 68.0784 266.24 68.2272C266.21 68.257 266.173 68.2867 266.136 68.3091C265.86 68.4877 265.57 68.6291 265.265 68.7333C264.498 69.0012 263.68 69.0161 262.846 68.8375C260.606 69.6115 258.492 69.4329 256.646 68.7929C253.885 67.8402 251.712 65.8604 250.581 64.5505C249.613 63.4341 248.869 62.3996 248.608 61.4618C248.288 60.3231 248.586 59.3778 249.844 58.6782C249.933 58.641 250.022 58.5964 250.112 58.5517ZM264.111 50.789C263.121 50.7369 261.618 50.8932 260.546 52.0245C260.747 52.0691 260.918 52.1138 261.045 52.151C261.573 51.9128 262.213 51.8161 263.211 51.9798C263.352 52.0021 263.486 52.0319 263.62 52.0766C263.732 51.7044 263.881 51.2355 264.111 50.789ZM259.445 53.2227C259.125 53.4311 258.73 53.6246 258.217 53.7735C257.949 53.8479 257.733 53.9075 257.517 53.967L257.219 54.0489C257.971 53.4088 258.782 53.2302 259.445 53.2227ZM268.249 63.6723C268.324 62.9429 268.324 62.1242 268.227 61.2013C267.952 58.6782 267.394 56.4752 266.567 54.875C266.084 53.9372 265.503 53.2004 264.833 52.6943C264.975 51.9426 265.421 50.335 266.776 50.4392C266.94 50.4541 267.17 50.6922 267.438 51.1016C267.974 51.9277 268.48 53.2823 268.815 54.8527C269.157 56.4529 269.329 58.2689 269.187 59.9807C269.083 61.3353 268.793 62.6154 268.249 63.6723ZM253.595 60.1593C253.87 60.8292 254.265 61.5511 254.741 62.2805C255.917 64.0816 257.644 65.9646 259.482 67.2597C259.869 67.535 260.263 67.7806 260.658 67.9965C259.385 68.1305 258.18 67.9369 257.071 67.5574C254.577 66.7015 252.605 64.8929 251.563 63.6946C250.707 62.7122 250.06 61.8265 249.859 61.112C249.71 60.5984 249.866 60.1593 250.469 59.8244C251.712 59.1471 253.126 59.8765 253.595 60.1593Z" fill="#F34D4D"/>
<path fill-rule="evenodd" clip-rule="evenodd" d="M272.202 83.9164C271.844 83.2242 271.532 82.4279 271.279 81.691C270.706 80.0313 270.326 78.2748 270.237 76.5184C269.976 71.0108 272.745 67.081 277.791 64.945C278.185 64.7738 278.632 64.9078 278.878 65.2576C281.996 69.7678 282.227 74.5684 279.056 79.0786C278.044 80.5151 276.779 81.7952 275.409 82.8893C274.807 83.3731 274.114 83.8792 273.444 84.2736C273.221 84.4002 272.99 84.4299 272.745 84.3555C272.507 84.2885 272.321 84.1397 272.202 83.9164Z" fill="#8B2C2C"/>
<path fill-rule="evenodd" clip-rule="evenodd" d="M268.45 76.3993C268.093 76.5481 267.684 76.6746 267.304 76.7714C266.456 76.9872 265.563 77.1138 264.684 77.084C261.931 76.9947 260.085 75.4615 259.214 72.864C259.147 72.663 259.229 72.4398 259.415 72.3356C261.782 70.9587 264.186 71.0331 266.307 72.797C266.984 73.3552 267.572 74.0399 268.063 74.7619C268.279 75.0819 268.51 75.4466 268.674 75.7964C268.726 75.908 268.733 76.0271 268.689 76.1462C268.651 76.2653 268.57 76.3472 268.45 76.3993Z" fill="#8B2C2C"/>
<path fill-rule="evenodd" clip-rule="evenodd" d="M244.656 23.8017H241.917C241.255 23.8017 240.719 23.2658 240.719 22.6034V19.8645C240.719 19.2021 241.255 18.6663 241.917 18.6663H244.656C245.319 18.6663 245.854 19.2021 245.854 19.8645V22.6034C245.854 23.2584 245.311 23.8017 244.656 23.8017Z" fill="#E8BFC5"/>
<path fill-rule="evenodd" clip-rule="evenodd" d="M235.144 23.8017H232.405C231.743 23.8017 231.207 23.2658 231.207 22.6034V19.8645C231.207 19.2021 231.743 18.6663 232.405 18.6663H235.144C235.807 18.6663 236.343 19.2021 236.343 19.8645V22.6034C236.343 23.2584 235.807 23.8017 235.144 23.8017Z" fill="white"/>
<path fill-rule="evenodd" clip-rule="evenodd" d="M225.64 23.8017H222.901C222.239 23.8017 221.703 23.2658 221.703 22.6034V19.8645C221.703 19.2021 222.239 18.6663 222.901 18.6663H225.64C226.302 18.6663 226.838 19.2021 226.838 19.8645V22.6034C226.838 23.2584 226.295 23.8017 225.64 23.8017Z" fill="#E8BFC5"/>
<path fill-rule="evenodd" clip-rule="evenodd" d="M216.128 23.8017H213.389C212.727 23.8017 212.191 23.2658 212.191 22.6034V19.8645C212.191 19.2021 212.727 18.6663 213.389 18.6663H216.128C216.783 18.6663 217.327 19.2021 217.327 19.8645V22.6034C217.327 23.2584 216.791 23.8017 216.128 23.8017Z" fill="white"/>
<path fill-rule="evenodd" clip-rule="evenodd" d="M206.624 23.8017H203.885C203.223 23.8017 202.687 23.2658 202.687 22.6034V19.8645C202.687 19.2021 203.23 18.6663 203.885 18.6663H206.624C207.286 18.6663 207.822 19.2021 207.822 19.8645V22.6034C207.822 23.2584 207.286 23.8017 206.624 23.8017Z" fill="#E8BFC5"/>
<path fill-rule="evenodd" clip-rule="evenodd" d="M225.29 13.434H222.551C221.889 13.434 221.353 12.8982 221.353 12.2358V9.49686C221.353 8.83446 221.889 8.29858 222.551 8.29858H225.29C225.953 8.29858 226.489 8.83446 226.489 9.49686V12.2358C226.489 12.8982 225.953 13.434 225.29 13.434Z" fill="white"/>
<path fill-rule="evenodd" clip-rule="evenodd" d="M215.786 13.434H213.047C212.385 13.434 211.849 12.8982 211.849 12.2358V9.49686C211.849 8.83446 212.385 8.29858 213.047 8.29858H215.786C216.448 8.29858 216.984 8.83446 216.984 9.49686V12.2358C216.984 12.8982 216.448 13.434 215.786 13.434Z" fill="#E8BFC5"/>
<path fill-rule="evenodd" clip-rule="evenodd" d="M206.282 13.434H203.543C202.88 13.434 202.344 12.8982 202.344 12.2358V9.49686C202.344 8.83446 202.88 8.29858 203.543 8.29858H206.282C206.944 8.29858 207.48 8.83446 207.48 9.49686V12.2358C207.48 12.8982 206.937 13.434 206.282 13.434Z" fill="white"/>
<path fill-rule="evenodd" clip-rule="evenodd" d="M76.0569 262.615H78.7958C79.4582 262.615 79.9941 262.08 79.9941 261.417V258.678C79.9941 258.016 79.4582 257.48 78.7958 257.48H76.0569C75.3945 257.48 74.8586 258.016 74.8586 258.678V261.417C74.8586 262.072 75.4019 262.615 76.0569 262.615Z" fill="#E8BFC5"/>
<path fill-rule="evenodd" clip-rule="evenodd" d="M85.5686 262.615H88.3075C88.9699 262.615 89.5058 262.08 89.5058 261.417V258.678C89.5058 258.016 88.9699 257.48 88.3075 257.48H85.5686C84.9062 257.48 84.3704 258.016 84.3704 258.678V261.417C84.3704 262.072 84.9062 262.615 85.5686 262.615Z" fill="white"/>
<path fill-rule="evenodd" clip-rule="evenodd" d="M95.0729 262.615H97.8119C98.4743 262.615 99.0101 262.08 99.0101 261.417V258.678C99.0101 258.016 98.4743 257.48 97.8119 257.48H95.0729C94.4105 257.48 93.8747 258.016 93.8747 258.678V261.417C93.8747 262.072 94.418 262.615 95.0729 262.615Z" fill="#E8BFC5"/>
<path fill-rule="evenodd" clip-rule="evenodd" d="M104.585 262.615H107.324C107.986 262.615 108.522 262.08 108.522 261.417V258.678C108.522 258.016 107.986 257.48 107.324 257.48H104.585C103.922 257.48 103.386 258.016 103.386 258.678V261.417C103.379 262.072 103.922 262.615 104.585 262.615Z" fill="white"/>
<path fill-rule="evenodd" clip-rule="evenodd" d="M114.089 262.615H116.828C117.49 262.615 118.026 262.08 118.026 261.417V258.678C118.026 258.016 117.49 257.48 116.828 257.48H114.089C113.427 257.48 112.891 258.016 112.891 258.678V261.417C112.891 262.072 113.427 262.615 114.089 262.615Z" fill="#E8BFC5"/>
<path fill-rule="evenodd" clip-rule="evenodd" d="M95.4228 252.248H98.1617C98.8241 252.248 99.3599 251.712 99.3599 251.049V248.311C99.3599 247.648 98.8241 247.112 98.1617 247.112H95.4228C94.7604 247.112 94.2245 247.648 94.2245 248.311V251.049C94.217 251.712 94.7604 252.248 95.4228 252.248Z" fill="white"/>
<path fill-rule="evenodd" clip-rule="evenodd" d="M104.927 252.248H107.666C108.328 252.248 108.864 251.712 108.864 251.049V248.311C108.864 247.648 108.328 247.112 107.666 247.112H104.927C104.265 247.112 103.729 247.648 103.729 248.311V251.049C103.729 251.712 104.265 252.248 104.927 252.248Z" fill="#E8BFC5"/>
<path fill-rule="evenodd" clip-rule="evenodd" d="M114.431 252.248H117.17C117.833 252.248 118.369 251.712 118.369 251.049V248.311C118.369 247.648 117.833 247.112 117.17 247.112H114.431C113.769 247.112 113.233 247.648 113.233 248.311V251.049C113.233 251.712 113.776 252.248 114.431 252.248Z" fill="white"/>
<path fill-rule="evenodd" clip-rule="evenodd" d="M51.8904 208.038C51.8904 207.644 52.2105 207.324 52.6049 207.324C52.9994 207.324 53.3194 207.644 53.3194 208.038V211.239C53.3194 211.633 52.9994 211.953 52.6049 211.953C52.2105 211.953 51.8904 211.633 51.8904 211.239V208.038ZM47.0304 210.643C46.755 210.368 46.755 209.914 47.0304 209.638C47.3057 209.363 47.7597 209.363 48.0351 209.638L50.2977 211.908C50.5731 212.184 50.5731 212.638 50.2977 212.913C50.0223 213.189 49.5683 213.189 49.2929 212.913L47.0304 210.643ZM45.4376 215.92C45.0432 215.92 44.7231 215.6 44.7231 215.206C44.7231 214.811 45.0432 214.491 45.4376 214.491H48.6454C49.0399 214.491 49.3599 214.811 49.3599 215.206C49.3599 215.6 49.0399 215.92 48.6454 215.92H45.4376ZM48.0351 220.773C47.7597 221.048 47.3057 221.048 47.0304 220.773C46.755 220.497 46.755 220.043 47.0304 219.768L49.2929 217.498C49.5683 217.223 50.0223 217.223 50.2977 217.498C50.5731 217.773 50.5731 218.227 50.2977 218.503L48.0351 220.773ZM53.312 222.365C53.312 222.76 52.992 223.08 52.5975 223.08C52.203 223.08 51.883 222.76 51.883 222.365V219.158C51.883 218.763 52.203 218.443 52.5975 218.443C52.992 218.443 53.312 218.763 53.312 219.158V222.365ZM58.1721 219.768C58.4475 220.043 58.4475 220.497 58.1721 220.773C57.8967 221.048 57.4427 221.048 57.1673 220.773L54.9047 218.503C54.6293 218.227 54.6293 217.773 54.9047 217.498C55.1801 217.223 55.6341 217.223 55.9095 217.498L58.1721 219.768ZM59.7648 214.491C60.1593 214.491 60.4793 214.811 60.4793 215.206C60.4793 215.6 60.1593 215.92 59.7648 215.92H56.557C56.1625 215.92 55.8425 215.6 55.8425 215.206C55.8425 214.811 56.1625 214.491 56.557 214.491H59.7648ZM57.1599 209.638C57.4352 209.363 57.8893 209.363 58.1646 209.638C58.44 209.914 58.44 210.368 58.1646 210.643L55.9021 212.913C55.6267 213.189 55.1727 213.189 54.8973 212.913C54.6219 212.638 54.6219 212.184 54.8973 211.908L57.1599 209.638Z" fill="white"/>
<path fill-rule="evenodd" clip-rule="evenodd" d="M124.926 19.4254C124.926 19.031 125.246 18.7109 125.64 18.7109C126.035 18.7109 126.355 19.031 126.355 19.4254V22.6332C126.355 23.0277 126.035 23.3477 125.64 23.3477C125.246 23.3477 124.926 23.0277 124.926 22.6332V19.4254ZM120.073 22.0304C119.798 21.755 119.798 21.301 120.073 21.0256C120.348 20.7502 120.802 20.7502 121.078 21.0256L123.34 23.2956C123.616 23.571 123.616 24.025 123.34 24.3004C123.065 24.5758 122.611 24.5758 122.336 24.3004L120.073 22.0304ZM118.48 27.3072C118.086 27.3072 117.766 26.9872 117.766 26.5927C117.766 26.1983 118.086 25.8783 118.48 25.8783H121.688C122.082 25.8783 122.403 26.1983 122.403 26.5927C122.403 26.9872 122.082 27.3072 121.688 27.3072H118.48ZM121.078 32.1599C120.802 32.4353 120.348 32.4353 120.073 32.1599C119.798 31.8845 119.798 31.4305 120.073 31.1551L122.343 28.8925C122.618 28.6172 123.072 28.6172 123.348 28.8925C123.623 29.1679 123.623 29.6219 123.348 29.8973L121.078 32.1599ZM126.355 33.7526C126.355 34.1471 126.035 34.4671 125.64 34.4671C125.246 34.4671 124.926 34.1471 124.926 33.7526V30.5448C124.926 30.1504 125.246 29.8303 125.64 29.8303C126.035 29.8303 126.355 30.1504 126.355 30.5448V33.7526ZM131.207 31.1551C131.483 31.4305 131.483 31.8845 131.207 32.1599C130.932 32.4353 130.478 32.4353 130.202 32.1599L127.94 29.8973C127.664 29.6219 127.664 29.1679 127.94 28.8925C128.215 28.6172 128.669 28.6172 128.945 28.8925L131.207 31.1551ZM132.8 25.8783C133.194 25.8783 133.514 26.1983 133.514 26.5927C133.514 26.9872 133.194 27.3072 132.8 27.3072H129.592C129.198 27.3072 128.878 26.9872 128.878 26.5927C128.878 26.1983 129.198 25.8783 129.592 25.8783H132.8ZM130.202 21.0256C130.478 20.7502 130.932 20.7502 131.207 21.0256C131.483 21.301 131.483 21.755 131.207 22.0304L128.945 24.3004C128.669 24.5758 128.215 24.5758 127.94 24.3004C127.664 24.025 127.664 23.571 127.94 23.2956L130.202 21.0256Z" fill="white"/>
<path fill-rule="evenodd" clip-rule="evenodd" d="M320.936 112.809C320.936 112.415 321.256 112.094 321.651 112.094C322.045 112.094 322.365 112.415 322.365 112.809V116.017C322.365 116.411 322.045 116.731 321.651 116.731C321.256 116.731 320.936 116.411 320.936 116.017V112.809ZM316.084 115.414C315.808 115.139 315.808 114.685 316.084 114.409C316.359 114.134 316.813 114.134 317.088 114.409L319.351 116.672C319.626 116.947 319.626 117.401 319.351 117.677C319.076 117.952 318.622 117.952 318.346 117.677L316.084 115.414ZM314.483 120.683C314.089 120.683 313.769 120.363 313.769 119.969C313.769 119.574 314.089 119.254 314.483 119.254H317.691C318.086 119.254 318.406 119.574 318.406 119.969C318.406 120.363 318.086 120.683 317.691 120.683H314.483ZM317.088 125.543C316.813 125.819 316.359 125.819 316.084 125.543C315.808 125.268 315.808 124.814 316.084 124.539L318.346 122.276C318.622 122.001 319.076 122.001 319.351 122.276C319.626 122.551 319.626 123.005 319.351 123.281L317.088 125.543ZM322.358 127.136C322.358 127.531 322.038 127.851 321.643 127.851C321.249 127.851 320.929 127.531 320.929 127.136V123.928C320.929 123.534 321.249 123.214 321.643 123.214C322.038 123.214 322.358 123.534 322.358 123.928V127.136ZM327.218 124.531C327.493 124.807 327.493 125.261 327.218 125.536C326.943 125.811 326.489 125.811 326.213 125.536L323.951 123.273C323.675 122.998 323.675 122.544 323.951 122.269C324.226 121.993 324.68 121.993 324.955 122.269L327.218 124.531ZM328.811 119.262C329.205 119.262 329.525 119.582 329.525 119.976C329.525 120.371 329.205 120.691 328.811 120.691H325.61C325.216 120.691 324.896 120.371 324.896 119.976C324.896 119.582 325.216 119.262 325.61 119.262H328.811ZM326.213 114.402C326.489 114.126 326.943 114.126 327.218 114.402C327.493 114.677 327.493 115.131 327.218 115.406L324.955 117.669C324.68 117.944 324.226 117.944 323.951 117.669C323.675 117.394 323.675 116.94 323.951 116.664L326.213 114.402Z" fill="white"/>
<path fill-rule="evenodd" clip-rule="evenodd" d="M112.005 110.613C110.249 108.857 107.376 108.857 105.619 110.613L104.853 111.38L104.086 110.613C102.33 108.857 99.4567 108.857 97.7002 110.613C95.9437 112.37 95.9437 115.243 97.7002 116.999L98.4668 117.766L104.853 124.152L111.238 117.766L112.005 116.999C113.762 115.243 113.754 112.37 112.005 110.613Z" fill="white"/>
<path fill-rule="evenodd" clip-rule="evenodd" d="M231.274 153.141C229.518 151.384 226.645 151.384 224.888 153.141L224.122 153.907L223.355 153.141C221.599 151.384 218.726 151.384 216.969 153.141C215.213 154.897 215.213 157.77 216.969 159.527L217.736 160.293L224.122 166.679L230.508 160.293L231.274 159.527C233.031 157.77 233.031 154.897 231.274 153.141Z" fill="white"/>
<path fill-rule="evenodd" clip-rule="evenodd" d="M242.364 36.6477C240.607 34.8912 237.734 34.8912 235.978 36.6477L235.211 37.4143L234.445 36.6477C232.688 34.8912 229.815 34.8912 228.059 36.6477C226.303 38.4042 226.303 41.277 228.059 43.0335L228.826 43.8001L235.211 50.1859L241.597 43.8001L242.364 43.0335C244.12 41.277 244.12 38.4042 242.364 36.6477Z" fill="white"/>
<path fill-rule="evenodd" clip-rule="evenodd" d="M46.6061 85.2858C47.8788 85.2858 48.9208 84.2513 48.9208 82.9712C48.9208 81.6985 47.8863 80.6565 46.6061 80.6565C45.3334 80.6565 44.2915 81.6985 44.2915 82.9712C44.2989 84.2439 45.3334 85.2858 46.6061 85.2858Z" fill="white"/>
<path fill-rule="evenodd" clip-rule="evenodd" d="M112.251 227.672C113.523 227.672 114.565 226.63 114.565 225.357C114.565 224.085 113.523 223.05 112.251 223.05C110.978 223.05 109.936 224.085 109.936 225.357C109.936 226.63 110.978 227.672 112.251 227.672Z" fill="white"/>
<path fill-rule="evenodd" clip-rule="evenodd" d="M263.881 250.782C265.153 250.782 266.188 249.747 266.188 248.467C266.188 247.194 265.153 246.16 263.881 246.16C262.608 246.16 261.566 247.194 261.566 248.467C261.566 249.747 262.608 250.782 263.881 250.782Z" fill="white"/>
<path fill-rule="evenodd" clip-rule="evenodd" d="M246.316 117.647C247.589 117.647 248.631 116.605 248.631 115.332C248.631 114.059 247.596 113.017 246.316 113.017C245.043 113.017 244.001 114.059 244.001 115.332C244.001 116.605 245.043 117.647 246.316 117.647Z" fill="white"/>
<path fill-rule="evenodd" clip-rule="evenodd" d="M264.536 211.655C264.536 211.261 264.856 210.941 265.25 210.941C265.645 210.941 265.965 211.261 265.965 211.655V214.863C265.965 215.257 265.645 215.577 265.25 215.577C264.856 215.577 264.536 215.257 264.536 214.863V211.655ZM259.683 214.26C259.408 213.985 259.408 213.531 259.683 213.255C259.958 212.98 260.412 212.98 260.688 213.255L262.95 215.525C263.226 215.801 263.226 216.255 262.95 216.53C262.675 216.805 262.221 216.805 261.946 216.53L259.683 214.26ZM258.09 219.53C257.696 219.53 257.376 219.209 257.376 218.815C257.376 218.421 257.696 218.101 258.09 218.101H261.298C261.692 218.101 262.013 218.421 262.013 218.815C262.013 219.209 261.692 219.53 261.298 219.53H258.09ZM260.688 224.39C260.412 224.665 259.958 224.665 259.683 224.39C259.408 224.114 259.408 223.66 259.683 223.385L261.946 221.115C262.221 220.839 262.675 220.839 262.95 221.115C263.226 221.39 263.226 221.844 262.95 222.12L260.688 224.39ZM265.965 225.982C265.965 226.377 265.645 226.697 265.25 226.697C264.856 226.697 264.536 226.377 264.536 225.982V222.782C264.536 222.388 264.856 222.067 265.25 222.067C265.645 222.067 265.965 222.388 265.965 222.782V225.982ZM270.817 223.377C271.093 223.653 271.093 224.107 270.817 224.382C270.542 224.658 270.088 224.658 269.812 224.382L267.55 222.112C267.274 221.837 267.274 221.383 267.55 221.107C267.825 220.832 268.279 220.832 268.555 221.107L270.817 223.377ZM272.41 218.108C272.804 218.108 273.124 218.428 273.124 218.822C273.124 219.217 272.804 219.537 272.41 219.537H269.202C268.808 219.537 268.488 219.217 268.488 218.822C268.488 218.428 268.808 218.108 269.202 218.108H272.41ZM269.812 213.248C270.088 212.973 270.542 212.973 270.817 213.248C271.093 213.523 271.093 213.977 270.817 214.253L268.555 216.523C268.279 216.798 267.825 216.798 267.55 216.523C267.274 216.247 267.274 215.793 267.55 215.518L269.812 213.248Z" fill="white"/>
<path fill-rule="evenodd" clip-rule="evenodd" d="M321.204 235.546C319.448 233.79 316.575 233.79 314.818 235.546L314.052 236.313L313.285 235.546C311.529 233.79 308.656 233.79 306.899 235.546C305.143 237.303 305.143 240.176 306.899 241.932L307.666 242.699L314.044 249.085L320.43 242.699L321.197 241.932C322.961 240.176 322.961 237.303 321.204 235.546Z" fill="white"/>
<path fill-rule="evenodd" clip-rule="evenodd" d="M177.516 76.1983C169.783 81.1551 161.008 86.7223 161.008 86.7223L160.784 83.1423H153.133L152.575 91.2772C152.575 91.2772 152.233 95.2144 155.188 96.8518C158.142 98.4892 162.906 96.7922 165.258 95.8172C167.617 94.8422 182.346 87.9652 182.346 87.9652C190.689 84.2587 185.249 71.2415 177.516 76.1983Z" fill="#D2887A"/>
<path fill-rule="evenodd" clip-rule="evenodd" d="M144.76 95.6087C147.641 102.828 149.717 107.465 150.089 108.574C150.618 110.144 153.639 114.215 159.117 114.61C164.595 115.004 189.975 114.416 190.384 114.409C190.793 114.394 191.835 113.858 191.806 113.01C191.776 112.161 189.684 98.5932 189.409 97.4247C189.134 96.2562 188.308 96.1669 186.402 96.2935C184.497 96.42 167.066 97.4322 167.066 97.4322C167.066 97.4322 166.925 95.8171 166.463 95.2813C166.002 94.7379 164.692 95.0505 164.692 95.0505L164.521 94.5146L144.76 95.6087Z" fill="#AA3636"/>
<path fill-rule="evenodd" clip-rule="evenodd" d="M139.647 260.695L139.483 261.797C139.483 261.797 138.776 266.515 138.583 267.416C138.389 268.324 138.836 270.43 138.836 270.43C138.836 270.43 140.54 272.469 142.237 272.76C143.934 273.057 151.704 273.392 151.831 272.983C151.957 272.574 150.141 269.351 150.141 269.351C150.141 269.351 149.248 267.513 150.082 261.908C150.074 257.807 139.647 260.695 139.647 260.695Z" fill="#D2887A"/>
<path fill-rule="evenodd" clip-rule="evenodd" d="M148.311 270.199L147.358 269.872C147.358 269.872 145.192 270.958 142.475 270.073C139.751 269.18 138.695 267.721 138.695 267.721C138.695 267.721 138.561 267.423 138.27 267.423C137.98 267.423 138.203 267.423 137.95 267.423C137.697 267.423 136.99 267.527 136.692 268.197C136.402 268.867 135.784 272.938 136.625 275.193C137.459 277.448 138.635 277.151 138.635 277.151C138.635 277.151 143.287 275.833 146.42 276.898C149.553 277.955 152.434 279.056 152.434 279.056C152.434 279.056 152.27 273.08 148.311 270.199Z" fill="#F34D4D"/>
<path fill-rule="evenodd" clip-rule="evenodd" d="M169.485 278.446L169.835 277.471C169.835 277.471 169.835 276.727 169.835 276.288C169.835 275.848 169.641 274.516 168.302 274.516C166.962 274.516 164.35 274.516 163.159 274.516C161.968 274.516 155.522 271.383 150.573 267.527C150.573 267.527 150.223 267.133 149.702 267.423C149.181 267.706 147.603 268.919 147.447 269.046C147.283 269.172 147.269 269.693 147.365 269.872C147.462 270.051 152.047 278.744 152.047 278.744C152.047 278.744 165.525 280.433 169.485 278.446Z" fill="#141414"/>
<path fill-rule="evenodd" clip-rule="evenodd" d="M169.835 277.471C169.835 277.471 170.14 277.709 170.14 277.977C170.14 278.245 170.14 278.714 170.14 278.922C170.14 279.131 169.545 280.128 168.212 280.128C166.88 280.128 155.805 280.128 153.945 280.128C152.084 280.128 150.119 279.674 148.846 279.064C147.574 278.453 145.17 277.776 145.17 277.776C145.17 277.776 144.827 277.664 144.827 278.223C144.827 278.781 144.827 279.034 144.827 279.309C144.827 279.577 144.999 280.321 143.837 280.321C142.676 280.321 137.429 280.321 136.901 280.321C136.372 280.321 135.77 280.031 135.77 278.997C135.77 277.962 135.77 276.98 135.77 276.332C135.77 275.685 136.179 275.178 136.618 275.178C137.057 275.178 139.714 275.178 141.954 275.178C144.195 275.178 145.974 275.707 148.757 276.957C151.541 278.215 154.079 278.587 156.981 278.587C159.884 278.587 163.561 278.587 164.967 278.587C166.374 278.587 168.882 278.29 169.835 277.471Z" fill="#141414"/>
<path fill-rule="evenodd" clip-rule="evenodd" d="M135.926 260.695L135.77 261.797C135.77 261.797 135.092 266.515 134.906 267.416C134.72 268.324 135.152 270.43 135.152 270.43C135.152 270.43 136.789 272.469 138.419 272.76C140.049 273.057 147.499 273.392 147.626 272.983C147.745 272.574 146.003 269.351 146.003 269.351C146.003 269.351 145.147 267.513 145.944 261.908C145.921 257.807 135.926 260.695 135.926 260.695Z" fill="#E6B5A3"/>
<path fill-rule="evenodd" clip-rule="evenodd" d="M144.232 270.199L143.316 269.872C143.316 269.872 141.24 270.958 138.628 270.073C136.015 269.18 135.003 267.721 135.003 267.721C135.003 267.721 134.876 267.423 134.594 267.423C134.311 267.423 134.534 267.423 134.288 267.423C134.043 267.423 133.366 267.527 133.083 268.197C132.8 268.867 132.212 272.938 133.016 275.193C133.82 277.448 134.943 277.151 134.943 277.151C134.943 277.151 139.402 275.833 142.416 276.898C145.423 277.955 148.184 279.056 148.184 279.056C148.184 279.056 148.028 273.08 144.232 270.199Z" fill="#141414"/>
<path fill-rule="evenodd" clip-rule="evenodd" d="M164.543 278.446L164.878 277.471C164.878 277.471 164.878 276.727 164.878 276.288C164.878 275.848 164.692 274.516 163.404 274.516C162.117 274.516 159.616 274.516 158.47 274.516C157.331 274.516 151.146 271.383 146.39 267.527C146.39 267.527 146.055 267.133 145.557 267.423C145.058 267.706 143.547 268.919 143.391 269.046C143.235 269.172 143.22 269.693 143.309 269.872C143.398 270.051 147.797 278.744 147.797 278.744C147.797 278.744 160.747 280.433 164.543 278.446Z" fill="#111111"/>
<path fill-rule="evenodd" clip-rule="evenodd" d="M164.878 277.471C164.878 277.471 165.168 277.709 165.168 277.977C165.168 278.245 165.168 278.714 165.168 278.922C165.168 279.131 164.595 280.128 163.322 280.128C153.305 280.128 143.294 280.321 133.291 280.321C132.785 280.321 132.205 280.031 132.205 278.997C132.205 277.962 132.205 276.98 132.205 276.332C132.205 275.685 132.599 275.178 133.016 275.178C133.433 275.178 135.985 275.178 138.136 275.178C140.28 275.178 141.992 275.707 144.664 276.957C147.336 278.215 149.769 278.587 152.553 278.587C155.336 278.587 158.864 278.587 160.211 278.587C161.558 278.595 163.97 278.29 164.878 277.471Z" fill="#111111"/>
<path fill-rule="evenodd" clip-rule="evenodd" d="M194.381 57.1152C194.314 57.4353 194.224 57.7776 194.113 58.1274C192.557 62.9577 192.215 63.5159 193.577 65.6967C194.939 67.8774 197.075 71.8369 192.312 76.7044C187.548 81.5645 191.493 83.8047 190.689 86.5288C189.893 89.2528 185.234 88.4936 184.006 90.0119C182.77 91.5302 182.755 94.4924 179.242 93.8672C175.722 93.2421 173.504 87.1018 175.893 82.4799C178.282 77.8655 178.55 76.8607 177.434 76.0494C176.31 75.2307 172.269 70.4897 178.632 63.4638C181.23 60.5984 182.279 58.5442 182.614 57.1152H194.381Z" fill="#141414"/>
<path fill-rule="evenodd" clip-rule="evenodd" d="M182.621 63.1735C184.117 62.8907 184.4 63.5084 185.077 64.5355C186.432 66.5972 189.402 71.2265 189.402 71.2265H199.628L191.166 54.4507L183.291 58.7972L182.621 63.1735Z" fill="#E6B5A3"/>
<path fill-rule="evenodd" clip-rule="evenodd" d="M182.621 63.1736C183.477 63.0099 183.931 63.1439 184.296 63.4788L192.319 61.5511L193.272 58.641L191.166 54.4583L183.291 58.8048L182.621 63.1736Z" fill="#D2887A"/>
<path fill-rule="evenodd" clip-rule="evenodd" d="M155.627 71.0479C155.627 71.0479 158.507 73.4593 159.155 74.1887C159.802 74.9255 165.354 95.3408 165.585 98.0425C165.823 100.744 165.138 116.128 165.138 116.128C165.138 116.128 168.875 145.869 169.224 148.69C169.574 151.511 160.174 157.971 160.174 157.971L155.627 71.0479Z" fill="#8B2C2C"/>
<path fill-rule="evenodd" clip-rule="evenodd" d="M225.975 255.009C214.692 235.264 203.677 169.79 204.146 150.99C204.614 132.19 193.912 121.576 193.912 121.576C184.832 102.359 208.023 85.085 202.21 72.6036C201.057 70.1252 198.467 68.9194 198.467 68.9194C198.779 69.9391 197.507 70.0731 194.105 70.1921C190.697 70.3112 187.943 71.2862 187.943 71.2862C187.943 71.2862 181.937 77.8879 181.289 78.5354C180.642 79.1829 171.48 83.7676 170.304 85.7622C169.128 87.7569 171.48 96.6881 171.361 101.571C171.241 106.445 170.125 115.622 169.775 120.549C169.425 125.476 164.253 154.86 164.722 175.313C165.191 195.758 159.288 238.203 156.944 250.893C156.944 250.893 156.646 252.188 157.123 253.364C157.592 254.54 160.651 255.657 160.651 255.657C160.651 255.657 157.242 275.104 156.832 276.571C156.423 278.037 157.77 280.567 159.891 281.334C162.005 282.1 177.404 285.092 189.268 282.272C189.268 282.272 191.85 281.215 191.739 278.156C191.739 278.156 204.786 278.506 211.127 274.985C211.127 274.985 212.065 274.635 212.065 272.284C212.065 269.932 211.596 268.056 211.596 268.056C211.596 268.056 221.234 263.829 225.7 257.242C225.685 257.242 226.444 256.535 225.975 255.009Z" fill="white"/>
<path fill-rule="evenodd" clip-rule="evenodd" d="M192.141 116.143C190.764 108.701 193.517 101.608 196.614 95.0358L193.718 91.9099C193.718 91.9099 193.168 97.4324 192.929 98.5488C192.691 99.6652 179.652 110.241 179.652 110.241L182.391 114.967L192.141 116.143Z" fill="#E3E1F1"/>
<path fill-rule="evenodd" clip-rule="evenodd" d="M192.312 116.955C192.118 116.084 191.977 115.228 191.895 114.365L170.199 115.764C170.028 117.557 169.872 119.217 169.783 120.557C169.716 121.532 169.455 123.474 169.091 126.109L184.088 126.303C184.088 126.303 185.911 126.303 185.442 124.308C184.973 122.313 184.385 120.84 184.385 120.84L192.141 118.607L192.312 116.955Z" fill="#E3E1F1"/>
<path fill-rule="evenodd" clip-rule="evenodd" d="M170.065 89.5652C170.356 92.7284 171.189 97.0675 171.338 100.298C178.029 100.29 183.812 93.7778 183.812 93.7778L194.798 81.9662L196.212 87.4887C196.212 87.4887 196.621 81.6685 195.624 80.5C194.626 79.3241 183.165 86.2011 183.165 86.2011L170.065 89.5652Z" fill="#E3E1F1"/>
<path fill-rule="evenodd" clip-rule="evenodd" d="M184.132 118.83C186.67 119.15 190.28 119.336 192.007 116.94C192.52 116.225 194.492 111.849 194.12 109.199C194.031 108.567 192.327 108.098 192.029 107.889C192.029 107.889 190.131 108.343 189.804 108.604C189.699 108.686 191.136 107.264 191.106 106.639C191.076 106.096 189.789 106.654 189.223 106.751C188.843 106.81 187.533 106.751 186.387 107.264C184.981 107.897 183.991 109.08 183.768 109.609C182.651 112.318 184.132 118.83 184.132 118.83Z" fill="#E6B5A3"/>
<path fill-rule="evenodd" clip-rule="evenodd" d="M179.815 108.157C179.815 108.157 184.162 107.941 184.564 107.889C184.973 107.837 185.204 108.209 185.397 108.574C185.598 108.946 186.938 120.199 186.938 120.199C186.938 120.199 187.132 120.951 186.38 121.286C185.636 121.621 181.497 122.417 181.497 122.417L179.815 108.157Z" fill="white"/>
<path fill-rule="evenodd" clip-rule="evenodd" d="M161.35 141.612C161.35 141.612 161.767 154.949 161.179 157.651C160.591 160.353 152.047 256.713 151.831 262.593C151.831 262.593 151.719 263.888 150.194 263.888C148.668 263.888 140.555 263.888 140.555 263.888C140.555 263.888 139.342 263.828 139.171 261.953C139 260.07 139.99 221.055 139.945 219.879C139.9 218.703 139.149 218.115 139.059 217.178C138.97 216.24 140.153 215.354 140.436 214.536C140.726 213.717 132.51 155.604 132.882 148.318C133.261 141.032 161.35 141.612 161.35 141.612Z" fill="#7A2626"/>
<path fill-rule="evenodd" clip-rule="evenodd" d="M161.35 141.612C161.35 141.612 161.298 154.949 160.613 157.651C159.929 160.353 147.976 256.713 147.559 262.593C147.559 262.593 147.403 263.888 145.877 263.888C144.351 263.888 136.238 263.888 136.238 263.888C136.238 263.888 135.025 263.828 134.921 261.953C134.817 260.07 137.184 221.055 137.184 219.879C137.184 218.703 136.447 218.115 136.395 217.178C136.343 216.24 137.556 215.354 137.868 214.536C138.181 213.717 132.026 155.604 132.659 148.318C133.284 141.032 161.35 141.612 161.35 141.612Z" fill="#491717"/>
<path fill-rule="evenodd" clip-rule="evenodd" d="M162.094 138.769C162.094 138.769 163.829 133.306 164.126 132.391C164.424 131.483 163.672 127.605 163.672 127.605C163.672 127.605 159.46 136.127 159.437 136.477C159.415 136.826 160.74 139.707 162.094 138.769Z" fill="#C8C4E1"/>
<path fill-rule="evenodd" clip-rule="evenodd" d="M158.06 143.614L162.087 143.681C162.087 143.681 162.876 143.674 162.876 142.498C162.876 141.322 162.898 138.62 162.898 138.62C162.898 138.62 162.824 138.002 162.295 137.853C161.767 137.705 159.333 138.173 159.333 138.173L158.06 143.614Z" fill="#C8C4E1"/>
<path fill-rule="evenodd" clip-rule="evenodd" d="M157.212 74.2631L161.06 94.2914L142.49 77.2476L148.898 62.5037L157.063 71.9038L157.212 74.2631Z" fill="#E3E1F1"/>
<path fill-rule="evenodd" clip-rule="evenodd" d="M156.721 70.5271L159.415 62.6899L160.256 55.143C160.256 55.143 156.475 52.2925 155.976 51.5631C155.478 50.8262 149.457 48.4595 149.457 48.4595L146.45 54.1382L144.373 61.2609L148.459 65.5553L156.721 70.5271Z" fill="#E6B5A3"/>
<path fill-rule="evenodd" clip-rule="evenodd" d="M158.284 65.9796L159.415 62.6899L160.256 55.143C160.256 55.143 156.475 52.2924 155.976 51.5631C155.575 50.9676 151.526 49.293 150.022 48.6902C149.71 48.8614 149.39 49.0326 149.062 49.2037L146.45 54.1457L146.182 55.0611L158.284 65.9796Z" fill="#D3857F"/>
<path fill-rule="evenodd" clip-rule="evenodd" d="M169.262 38.7764C169.5 39.5504 171.375 42.0735 170.326 45.7204C169.105 49.9479 168.875 51.9053 170.237 53.3715C170.237 53.3715 170.49 53.7585 170.199 54.2274C169.909 54.7038 168.934 55.3885 167.833 55.4034C167.088 56.2146 165.935 58.5442 165.511 59.3554C164.156 61.9157 163.345 63.181 160.353 62.8535C157.361 62.526 149.866 59.2364 150.536 52.7761C151.206 46.3159 151.92 46.5168 151.92 46.5168C151.92 46.5168 162.109 36.6999 162.749 36.6329C163.389 36.5659 169.165 35.3081 169.165 35.3081L169.262 38.7764Z" fill="#E6B5A3"/>
<path fill-rule="evenodd" clip-rule="evenodd" d="M166.56 57.3235C166.508 57.5096 166.456 57.7031 166.411 57.8892C166.381 57.8966 165.92 57.785 165.883 57.7924C164.856 57.8668 163.717 57.4352 163.107 56.5867C162.995 56.4304 163.032 56.2071 163.188 56.0955C163.345 55.9838 163.568 56.021 163.68 56.1773C164.171 56.8546 165.466 57.2416 166.277 57.2119C166.389 57.197 166.493 57.2416 166.56 57.3235Z" fill="#D2887A"/>
<path fill-rule="evenodd" clip-rule="evenodd" d="M164.342 61.8711C163.486 62.6228 162.176 63.0619 160.353 62.8609C159.348 62.7493 157.845 62.3102 156.311 61.5287C155.835 60.5016 155.351 60.1071 155.656 58.1199C155.962 56.1253 158.008 53.3417 159.653 52.4412C160.591 54.3986 161.521 56.3635 162.459 58.3209C163.121 56.8993 163.069 55.7606 164.431 56.1253C164.431 56.1179 164.483 60.3081 164.342 61.8711Z" fill="#DC9784"/>
<path fill-rule="evenodd" clip-rule="evenodd" d="M153.796 48.0871C157.123 47.4247 156.87 46.6953 157.711 43.9564C161.008 43.9043 162.95 41.999 164.022 40.3244C165.198 40.8454 167.088 40.2723 166.59 38.5977L169.589 40.2425C181.006 42.1925 176.503 14.6769 169.723 28.8329C169.723 28.8329 162.69 20.7352 153.982 21.4795C150.685 21.74 148.809 24.3375 147.797 26.5182C147.194 24.33 145.237 23.5486 144.656 25.7293C144.21 27.4039 144.812 29.0487 145.393 30.1279C135.941 35.0698 146.666 51.8233 146.472 53.8998C146.457 54.0561 146.45 54.1455 146.45 54.1455L146.695 54.0636L148.817 51.667L153.796 48.0871Z" fill="#111111"/>
<path fill-rule="evenodd" clip-rule="evenodd" d="M145.125 56.5496C145.125 56.5496 146.368 56.5644 146.948 57.1078C147.522 57.6511 156.87 68.7779 157.599 70.2143C158.321 71.6433 157.212 74.2706 157.212 74.2706C157.212 74.2706 149.181 64.3644 141.925 61.1566C141.925 61.1566 144.351 56.8324 145.125 56.5496Z" fill="white"/>
<path fill-rule="evenodd" clip-rule="evenodd" d="M153.796 48.0872C153.342 40.704 146.963 42.133 146.666 46.5837C146.368 51.0345 150.536 52.7835 150.536 52.7835L154.22 51.1759L153.796 48.0872Z" fill="#E6B5A3"/>
<path fill-rule="evenodd" clip-rule="evenodd" d="M162.243 50.6029C161.082 50.1415 159.765 50.7071 159.303 51.8682C158.842 53.0292 159.408 54.3466 160.569 54.808C161.73 55.2695 163.047 54.7038 163.508 53.5428C163.97 52.3817 163.404 51.0643 162.243 50.6029Z" fill="#D2887A"/>
<path fill-rule="evenodd" clip-rule="evenodd" d="M164.789 45.2889C165.749 45.1028 166.783 45.2219 167.513 45.9364C167.669 46.0927 167.922 46.0927 168.078 45.9289C168.235 45.7726 168.227 45.5196 168.071 45.3633C167.193 44.4999 165.786 44.2246 164.61 44.5074C164.394 44.5595 164.26 44.7679 164.312 44.9837C164.364 45.1996 164.58 45.3335 164.789 45.2889Z" fill="#141414"/>
<path d="M152.382 47.6853C151.883 43.6737 148.385 44.5222 148.37 46.9411C148.355 49.3674 150.729 50.268 150.729 50.268" stroke="#D2887A" stroke-width="0.7087" stroke-miterlimit="2.6131" stroke-linecap="round" stroke-linejoin="round"/>
<path d="M151.645 45.6536C151.645 45.6536 149.457 46.9411 151.377 48.7125" stroke="#D2887A" stroke-width="0.7087" stroke-miterlimit="2.6131" stroke-linecap="round" stroke-linejoin="round"/>
<path fill-rule="evenodd" clip-rule="evenodd" d="M164.335 48.0724C164.982 48.6529 165.838 49.0325 166.724 48.8092C166.917 48.7645 167.111 48.8762 167.155 49.0697C167.2 49.2632 167.088 49.4567 166.895 49.5014C165.831 49.7693 164.617 49.3451 163.843 48.5933C163.702 48.4594 163.695 48.2361 163.829 48.0872C163.962 47.9533 164.193 47.9458 164.335 48.0724Z" fill="#141414"/>
<path fill-rule="evenodd" clip-rule="evenodd" d="M161.238 37.8089C158.872 35.6058 155.396 32.5618 153.506 31.9664C150.744 31.0881 149.01 31.1998 147.603 31.1998C146.189 31.1998 145.393 30.1206 145.393 30.1206C144.812 29.0414 144.21 27.3965 144.656 25.7219C145.244 23.5412 147.202 24.3153 147.797 26.5109C148.802 24.3302 150.685 21.7327 153.982 21.4722C162.69 20.7279 169.723 28.8255 169.723 28.8255C176.503 14.6695 181.006 42.1926 169.589 40.2352L166.59 38.5903C167.088 40.265 165.198 40.838 164.022 40.3171C163.851 40.2426 163.687 40.1384 163.553 40.0119C163.203 39.677 162.34 38.836 161.238 37.8089Z" fill="#141414"/>
<path fill-rule="evenodd" clip-rule="evenodd" d="M175.982 35.5537C167.341 36.9306 156.081 32.331 150.811 22.6332C151.384 22.2239 152.032 21.8964 152.761 21.688C159.065 32.0705 169.463 31.9515 175.96 27.4561C176.66 29.5475 176.823 32.5171 176.191 35.0848C176.124 35.2411 176.057 35.3974 175.982 35.5537Z" fill="#111111"/>
<path fill-rule="evenodd" clip-rule="evenodd" d="M141.925 61.1565C141.925 61.1565 132.056 69.9017 130.054 76.0121C128.059 82.1226 133.462 112.794 133.462 114.677C133.462 116.56 132.874 116.82 132.696 117.468C132.517 118.115 133.224 118.555 133.373 119.113C133.522 119.671 132.138 121.405 131.847 122.172C131.55 122.938 132.993 125.171 133.172 125.64C133.351 126.109 121.301 146.353 120.661 147.06C120.013 147.767 127.888 155.82 146.926 159.928C146.926 159.928 152.568 160.866 154.153 156.87C155.738 152.873 165.667 131.542 165.436 121.554C165.198 111.566 163.025 100.112 162.444 97.1717C161.849 94.2244 149.33 57.6212 141.925 61.1565Z" fill="#8B2C2C"/>
<path fill-rule="evenodd" clip-rule="evenodd" d="M130.225 90.0937C130.857 96.3679 131.862 103.304 132.584 108.224L140.979 123.928C140.979 123.928 143.153 127.806 148.147 127.687C151.756 127.605 160.442 126.808 164.975 126.377C165.295 124.598 165.466 122.961 165.429 121.554C165.384 119.73 165.28 117.855 165.124 115.994L150.26 114.885L135.457 98.1839L132.517 85.375L130.225 90.0937Z" fill="#AA3636"/>
<path fill-rule="evenodd" clip-rule="evenodd" d="M141.835 61.0375C141.835 61.0375 144.306 67.6689 144.716 68.9565C144.745 69.0458 144.85 69.2542 145.013 69.5594L148.311 69.872L146.807 72.6927C151.221 80.3438 161.32 98.1468 164.833 112.965C164.833 112.965 164.506 96.2786 156.282 78.5278C148.057 60.7844 142.684 59.8169 142.684 59.8169L141.835 61.0375Z" fill="#AD3737"/>
<path fill-rule="evenodd" clip-rule="evenodd" d="M132.242 96.956C137.325 109.891 141.463 118.443 142.021 120.006C142.58 121.562 145.691 125.566 151.176 125.841C156.661 126.116 182.026 124.978 182.435 124.955C182.845 124.933 183.872 124.375 183.827 123.526C183.782 122.678 181.393 109.155 181.096 107.994C180.798 106.832 179.964 106.765 178.066 106.929C176.161 107.093 158.76 108.492 158.76 108.492C158.76 108.492 158.581 106.885 158.113 106.349C157.644 105.82 156.334 106.155 156.334 106.155C156.334 106.155 150.99 90.2427 148.281 82.0334C142.572 64.7217 120.482 67.029 132.242 96.956Z" fill="#AD3737"/>
<path fill-rule="evenodd" clip-rule="evenodd" d="M187.474 58.3358C185.703 63.7987 178.126 64.5281 176.183 64.3272C173.214 64.022 175.119 60.1816 174.055 57.2194C173.139 57.011 172.395 55.5895 172.678 55.3141C172.961 55.0387 174.918 53.1408 175.156 51.6895C175.394 50.2382 174.911 53.178 175.96 46.7699C177.002 40.3617 182.212 38.8806 182.212 38.8806L190.094 53.8255C190.094 53.8255 187.943 56.0881 187.474 58.3358Z" fill="#E6B5A3"/>
<path fill-rule="evenodd" clip-rule="evenodd" d="M179.451 53.6543C180.441 53.7585 181.155 54.6367 181.058 55.6266C180.954 56.6165 180.076 57.331 179.086 57.2342C178.096 57.13 177.382 56.2518 177.478 55.2619C177.575 54.272 178.461 53.5501 179.451 53.6543Z" fill="#D2887A"/>
<path fill-rule="evenodd" clip-rule="evenodd" d="M179.354 49.3227C179.518 49.4269 179.734 49.3822 179.845 49.226C179.957 49.0622 179.912 48.8464 179.748 48.7347C178.9 48.1542 177.694 47.9533 176.742 48.3775C176.563 48.4594 176.481 48.6677 176.563 48.8464C176.645 49.025 176.853 49.1069 177.032 49.025C177.791 48.6826 178.669 48.891 179.354 49.3227Z" fill="#141414"/>
<path fill-rule="evenodd" clip-rule="evenodd" d="M176.771 52.1436C176.623 52.0171 176.6 51.7938 176.727 51.6449C176.853 51.4961 177.077 51.4738 177.225 51.6003C177.225 51.6003 178.118 52.3594 179.101 51.6896C179.265 51.578 179.481 51.6226 179.592 51.7789C179.652 51.8682 179.667 51.9724 179.644 52.0692L179.786 52.2701C179.868 52.3892 179.838 52.5604 179.719 52.6423C179.6 52.7241 179.436 52.6944 179.347 52.5753L179.242 52.4264L179.19 52.4488L179.265 52.6199C179.324 52.7539 179.265 52.9102 179.123 52.9697C178.989 53.0293 178.833 52.9623 178.773 52.8283L178.684 52.6199C178.654 52.6274 178.632 52.6274 178.602 52.6348L178.61 52.8283C178.617 52.9772 178.498 53.0963 178.349 53.1037C178.2 53.1111 178.081 52.9921 178.074 52.8432L178.066 52.6571C177.315 52.605 176.771 52.1436 176.771 52.1436Z" fill="#141414"/>
<path fill-rule="evenodd" clip-rule="evenodd" d="M185.122 73.0054C179.012 79.8676 172.075 87.6006 172.075 87.6006C169.425 80.009 166.776 72.4175 164.126 64.8259C162.749 65.8381 161.365 66.8503 159.988 67.8625L165.176 94.2692C165.176 94.2692 165.912 98.1543 169.195 98.9358C172.484 99.7173 176.608 96.7923 178.617 95.2219C180.619 93.644 192.944 83.0456 192.944 83.0456C199.985 77.2031 191.233 66.1433 185.122 73.0054Z" fill="#E6B5A3"/>
<path fill-rule="evenodd" clip-rule="evenodd" d="M188.724 51.228C188.724 51.228 180.485 50.841 181.311 41.493C181.311 41.493 179.622 42.6764 177.679 42.3786C177.679 42.3786 176.861 43.5695 176.369 45.0729C176.369 45.0729 174.382 40.6668 175.908 37.6749C177.434 34.6755 182.487 35.7919 182.487 35.7919C184.594 30.8127 205.128 31.0955 200.893 41.4111C209.222 45.2739 202.97 55.9913 208.812 60.5835C211.573 62.7567 216.158 66.8725 212.28 75.3349C208.403 83.7972 214.513 84.8541 214.751 88.7317C214.99 92.6094 208.641 93.7853 207.755 96.3084C206.877 98.8389 208.224 102.657 203.409 103.476C198.593 104.302 192.892 97.4248 193.83 90.3766C194.768 83.3283 194.649 81.9142 192.833 81.3858C191.009 80.8574 183.604 76.6299 188.546 64.6397C193.473 52.6644 188.724 51.228 188.724 51.228Z" fill="#141414"/>
<path fill-rule="evenodd" clip-rule="evenodd" d="M186.238 55.2844C187.727 48.1915 195.08 50.3275 192.557 55.3662C191.195 58.0828 187.481 58.3359 187.481 58.3359L186.238 55.2844Z" fill="#E6B5A3"/>
<path d="M188.166 53.8181C189.893 50.8261 192.364 52.657 191.567 54.5698C190.771 56.4826 188.605 56.4007 188.605 56.4007" stroke="#D2887A" stroke-width="0.7087" stroke-miterlimit="2.6131" stroke-linecap="round" stroke-linejoin="round"/>
<path d="M189.424 52.4636C189.424 52.4636 190.712 54.2052 188.62 54.9569" stroke="#D2887A" stroke-width="0.7087" stroke-miterlimit="2.6131" stroke-linecap="round" stroke-linejoin="round"/>
<path fill-rule="evenodd" clip-rule="evenodd" d="M180.716 35.5985C185.204 42.4234 195.043 47.4472 205.039 45.9662C204.778 45.207 204.428 44.4851 203.945 43.8301C194.969 44.4999 189.29 39.171 187.333 33.0159C184.951 33.4996 183.053 34.4598 182.495 35.792C182.487 35.7994 181.728 35.6357 180.716 35.5985Z" fill="#111111"/>
<path fill-rule="evenodd" clip-rule="evenodd" d="M189.245 50.3424L188.732 51.228C188.732 51.228 186.983 51.8979 186.841 53.9818C186.841 53.9818 184.817 51.8681 186.015 49.6651C187.221 47.462 189.275 50.1935 189.275 50.1935L189.245 50.3424Z" fill="#141414"/>
<path d="M158.76 108.492L154.108 108.678" stroke="#8B2C2C" stroke-width="0.7087" stroke-miterlimit="2.6131" stroke-linecap="round" stroke-linejoin="round"/>
<path d="M156.326 106.155L155.493 106.825" stroke="#8B2C2C" stroke-width="0.7087" stroke-miterlimit="2.6131" stroke-linecap="round" stroke-linejoin="round"/>
<path d="M133.217 118.756L135.777 122.306" stroke="#AA3636" stroke-width="0.7087" stroke-miterlimit="2.6131" stroke-linecap="round" stroke-linejoin="round"/>
<path d="M133.172 125.633L134.132 124.419" stroke="#AA3636" stroke-width="0.7087" stroke-miterlimit="2.6131" stroke-linecap="round" stroke-linejoin="round"/>
<path d="M148.318 69.8795L149.308 67.989" stroke="#8B2C2C" stroke-width="0.7087" stroke-miterlimit="2.6131" stroke-linecap="round" stroke-linejoin="round"/>
<path d="M211.581 268.056C211.581 268.056 202.397 228.089 199.107 179.205" stroke="#E3E1F1" stroke-width="0.7087" stroke-miterlimit="2.6131" stroke-linecap="round" stroke-linejoin="round"/>
<path d="M188.94 119.031C188.94 119.031 196.517 124.732 200.164 136.834" stroke="#E3E1F1" stroke-width="0.7087" stroke-miterlimit="2.6131" stroke-linecap="round" stroke-linejoin="round"/>
<path d="M187.414 119.388C187.414 119.388 198.638 133.552 198.638 163.159" stroke="#E3E1F1" stroke-width="0.7087" stroke-miterlimit="2.6131" stroke-linecap="round" stroke-linejoin="round"/>
<path d="M191.724 278.163C191.724 278.163 190.414 236.023 190.176 217.922" stroke="#E3E1F1" stroke-width="0.7087" stroke-miterlimit="2.6131" stroke-linecap="round" stroke-linejoin="round"/>
<path d="M184.065 125.201C184.065 125.201 191.701 135.896 190.764 185.018" stroke="#E3E1F1" stroke-width="0.7087" stroke-miterlimit="2.6131" stroke-linecap="round" stroke-linejoin="round"/>
<path d="M160.636 255.656C160.636 255.656 167.252 200.528 167.49 172.09" stroke="#E3E1F1" stroke-width="0.7087" stroke-miterlimit="2.6131" stroke-linecap="round" stroke-linejoin="round"/>
<path d="M170.966 125.826C170.966 125.826 169.969 133.76 169.626 138.873" stroke="#E3E1F1" stroke-width="0.7087" stroke-miterlimit="2.6131" stroke-linecap="round" stroke-linejoin="round"/>
<path d="M178.066 125.64C178.066 125.64 179.949 159.899 179.242 173.526C178.535 187.154 177.359 220.534 177.359 220.534" stroke="#E3E1F1" stroke-width="0.7087" stroke-miterlimit="2.6131" stroke-linecap="round" stroke-linejoin="round"/>
<path d="M172.075 87.593C172.075 87.593 172.239 88.1363 172.149 88.6648" stroke="#D2887A" stroke-width="0.7087" stroke-miterlimit="2.6131" stroke-linecap="round" stroke-linejoin="round"/>
<path fill-rule="evenodd" clip-rule="evenodd" d="M159.497 67.3563C157.338 64.2378 155.508 57.8297 157.13 56.8919C157.45 56.7058 157.138 55.8722 157.294 55.5224C157.45 55.1726 158.016 55.1875 158.083 54.8228C158.209 54.0413 159.221 53.7957 159.184 53.178C159.147 52.4784 159.966 52.5453 160.159 52.7016C161.03 53.3864 163.017 59.5191 163.017 59.5191C163.017 59.5191 163.642 55.3661 164.312 56.1104C164.975 56.8547 165.295 61.3203 165.295 62.3399C165.295 63.3596 164.588 68.9565 164.588 68.9565L160.397 69.4626L159.497 67.3563Z" fill="#E6B5A3"/>
<path d="M159.184 53.2822L161.514 59.4224" stroke="#D2887A" stroke-width="0.7087" stroke-miterlimit="2.6131" stroke-linecap="round" stroke-linejoin="round"/>
<path d="M158.157 54.8376L160.025 60.1294" stroke="#D2887A" stroke-width="0.7087" stroke-miterlimit="2.6131" stroke-linecap="round" stroke-linejoin="round"/>
<path d="M157.1 56.9441L158.648 61.3427" stroke="#D2887A" stroke-width="0.7087" stroke-miterlimit="2.6131" stroke-linecap="round" stroke-linejoin="round"/>
<path fill-rule="evenodd" clip-rule="evenodd" d="M177.158 58.8269C177.322 58.7227 177.538 58.7674 177.65 58.9237C177.754 59.0874 177.717 59.3033 177.553 59.4149C176.704 59.9954 175.499 60.1964 174.546 59.7721C174.367 59.6903 174.286 59.4819 174.367 59.3033C174.449 59.1246 174.658 59.0428 174.836 59.1246C175.595 59.467 176.481 59.2586 177.158 58.8269Z" fill="#D2887A"/>
</g>
<defs>
<clipPath id="clip0_104_1912">
<rect width="346.748" height="300" fill="white"/>
</clipPath>
</defs>
</svg>
